<?xml version="1.0" encoding="utf-8"?>
<!-- Generator: Adobe Illustrator 26.0.1, SVG Export Plug-In . SVG Version: 6.00 Build 0)  -->
<svg version="1.1" id="Layer_1" xmlns="http://www.w3.org/2000/svg" xmlns:xlink="http://www.w3.org/1999/xlink" x="0px" y="0px"
	 viewBox="0 0 136 104" style="enable-background:new 0 0 136 104;" xml:space="preserve">
<style type="text/css">
	.st0{fill-rule:evenodd;clip-rule:evenodd;fill:#6B5044;}
	.st1{fill-rule:evenodd;clip-rule:evenodd;fill:#E0B4A7;}
</style>
<desc>Created with Sketch.</desc>
<g id="Head_x2F_Front_x2F_Long">
	<path id="Hair-Back" class="st0" d="M103.6,25.1C108.2,42,114.1,80,108,86H69.4c0-0.1,0-0.1,0-0.2C55.1,84.2,44,72,44,57.3V29.4
		C44,13.6,56.8,0.8,72.6,0.8h2.7C89.6,0.8,101.5,11.3,103.6,25.1z"/>
	<g id="Head" transform="translate(54.000000, 31.000000)">
		<path class="st1" d="M5,21C-1.1,13.8-5.3,5-4.6-4.9c2-28.5,41.6-22.2,49.4-7.8s6.8,50.8-3.2,53.4c-4,1-12.4-1.5-21.1-6.7l5.4,38.3
			H-6L5,21z"/>
	</g>
	<path id="Hair-Front" class="st0" d="M67.6,47.2C69.1,63,68.5,81,64.1,85.3H25.5C23.4,48,44.2,62.4,44.2,27.3
		c1.3-1.3,2.5-2.5,3.7-3.6l0-1C54.5,8.9,63,2.1,73.3,2.1c15.4,0,20.3,7.2,24.4,13.3C94.6,26,82.6,27.6,71.9,34.2
		c-1.3-1-2.9-1.6-4.6-1.6c-4,0-7.3,3.3-7.3,7.3s3.3,7.3,7.3,7.3C67.4,47.2,67.5,47.2,67.6,47.2z"/>
</g>
</svg>
