<?xml version="1.0" encoding="utf-8"?>
<!-- Generator: Adobe Illustrator 26.0.1, SVG Export Plug-In . SVG Version: 6.00 Build 0)  -->
<svg version="1.1" id="Layer_1" xmlns="http://www.w3.org/2000/svg" xmlns:xlink="http://www.w3.org/1999/xlink" x="0px" y="0px"
	 viewBox="0 0 136 104" style="enable-background:new 0 0 136 104;" xml:space="preserve">
<style type="text/css">
	.st0{fill-rule:evenodd;clip-rule:evenodd;fill:#E6A376;}
	.st1{fill-rule:evenodd;clip-rule:evenodd;fill:#291E1C;}
</style>
<desc>Created with Sketch.</desc>
<g id="Head_x2F_Front_x2F_Wavy">
	<g id="Head" transform="translate(54.000000, 31.000000)">
		<path class="st0" d="M17.2,23.5C11.4,16.7,7.4,8.3,8.1-1.1c1.9-27.1,39.6-21.1,47-7.5s6.5,48.4-3,50.8c-3.8,1-11.8-1.4-20-6.4
			l5.1,36.4H6.8L17.2,23.5z"/>
	</g>
	<path id="hair" class="st1" d="M111.9,28.6c-0.3-1.8-1-3.7-1.6-5.4c-0.8-2.2-1.9-4.1-3.2-5.9c-2.4-3.5-5.3-6.6-8.5-9.2
		c-5.8-4.7-13.2-7.5-20.5-6.6C74.5,1.9,71,3.3,67.9,5.6c-2.7,2.1-5.4,5.2-8.9,5.4c-3.9,0.2-7.4-3.2-10.5-5.3C45,3.4,41.3,1.7,37.2,1
		c-6.8-1.1-13.3,1.2-18,6.8c-5,6-8.7,14.7-5.4,22.6c0.6,1.5,1.4,2.7,2.5,3.7c1,0.9,2.6,1.9,3,3.4c0.4,1.6-0.9,3.7-1.4,5.1
		c-0.7,2.1-1.3,4.2-1.1,6.5c0.4,3.7,2.7,7.2,5.1,9.6c2.5,2.5,5.6,3.9,8.8,4.5c2.2,0.4,4.4,0.7,6.6,0.5c1.1-0.1,2.1-0.4,3.1-0.6
		c1-0.2,1.6,0,2.5,0.6c4.1,2.6,8.5,3.7,13.2,3.3c4-0.3,8.6-1.3,11.9-4c3.6-3,3.5-7.2,2.7-11.7c0.9,0.4,3.4,0.7,1.9-1.1
		c-0.6-0.7-1.7-1-2.5-1.4c-0.9-0.5-1.8-1.1-2.5-1.9c-2.8-3.2,0-9.7,3.5-10.7c5.2-1.6,6.3,5.7,10,7.6c2.1,1.1,4.3-0.4,5.9-1.9
		c2.1-2,3.6-4.7,4.8-7.5c1-2.3,2-4.5,3-6.8c0.5-1,2.2-4,1.3-5.2c3.7-0.7,7.8,0.8,11,2.8c1.3,0.8,2.3,1.8,3,3.2
		c0.2,0.3,0.5,1.3,0.9,1.3C112.3,29.9,112,29,111.9,28.6"/>
</g>
</svg>
