<?xml version="1.0" encoding="utf-8"?>
<!-- Generator: Adobe Illustrator 26.0.1, SVG Export Plug-In . SVG Version: 6.00 Build 0)  -->
<svg version="1.1" id="Layer_1" xmlns="http://www.w3.org/2000/svg" xmlns:xlink="http://www.w3.org/1999/xlink" x="0px" y="0px"
	 viewBox="0 0 136 104" style="enable-background:new 0 0 136 104;" xml:space="preserve">
<style type="text/css">
	.st0{fill-rule:evenodd;clip-rule:evenodd;fill:#E6A376;}
	.st1{fill-rule:evenodd;clip-rule:evenodd;fill:#291E1C;}
</style>
<desc>Created with Sketch.</desc>
<g id="Head_x2F_Front_x2F_Wavy">
	<g id="Head" transform="translate(54.000000, 31.000000)">
		<path class="st0" d="M15.5,22.9c-4.5-5.3-7.7-11.9-7.1-19.2c1.5-21.2,30.9-16.5,36.7-5.9s5.1,37.8-2.3,39.7c-3,0.8-9.2-1.1-15.6-5
			l4,28.4H7.3L15.5,22.9z"/>
	</g>
	<path id="hair" class="st1" d="M101.2,33.7c-0.2-1.4-0.8-2.9-1.2-4.2c-0.6-1.7-1.5-3.2-2.5-4.6c-1.9-2.7-4.1-5.2-6.6-7.2
		c-4.5-3.7-10.3-5.9-16-5.2c-2.8,0.3-5.5,1.4-8,3.2c-2.1,1.6-4.2,4.1-6.9,4.2c-3,0.2-5.8-2.5-8.2-4.1c-2.7-1.8-5.6-3.1-8.8-3.7
		c-5.3-0.9-10.4,0.9-14.1,5.3C25,22.2,22.1,29,24.6,35.1c0.5,1.2,1.1,2.1,2,2.9c0.8,0.7,2,1.5,2.3,2.7c0.3,1.2-0.7,2.9-1.1,4
		c-0.5,1.6-1,3.3-0.9,5.1c0.3,2.9,2.1,5.6,4,7.5c2,2,4.4,3,6.9,3.5c1.7,0.3,3.4,0.5,5.2,0.4c0.9-0.1,1.6-0.3,2.4-0.5
		c0.8-0.2,1.2,0,2,0.5c3.2,2,6.6,2.9,10.3,2.6c3.1-0.2,6.7-1,9.3-3.1c2.8-2.3,2.7-5.6,2.1-9.1c0.7,0.3,2.7,0.5,1.5-0.9
		c-0.5-0.5-1.3-0.8-2-1.1c-0.7-0.4-1.4-0.9-2-1.5c-2.2-2.5,0-7.6,2.7-8.4c4.1-1.2,4.9,4.5,7.8,5.9c1.6,0.9,3.4-0.3,4.6-1.5
		c1.6-1.6,2.8-3.7,3.7-5.9c0.8-1.8,1.6-3.5,2.3-5.3c0.4-0.8,1.7-3.1,1-4.1c2.9-0.5,6.1,0.6,8.6,2.2c1,0.6,1.8,1.4,2.3,2.5
		c0.2,0.2,0.4,1,0.7,1C101.6,34.7,101.3,34,101.2,33.7"/>
</g>
</svg>
