<?xml version="1.0" encoding="utf-8"?>
<!-- Generator: Adobe Illustrator 26.0.1, SVG Export Plug-In . SVG Version: 6.00 Build 0)  -->
<svg version="1.1" id="Layer_1" xmlns="http://www.w3.org/2000/svg" xmlns:xlink="http://www.w3.org/1999/xlink" x="0px" y="0px"
	 viewBox="0 0 136 104" style="enable-background:new 0 0 136 104;" xml:space="preserve">
<style type="text/css">
	.st0{fill-rule:evenodd;clip-rule:evenodd;fill:#D49C7B;}
	.st1{fill-rule:evenodd;clip-rule:evenodd;fill:#684B30;}
</style>
<desc>Created with Sketch.</desc>
<g id="Head_x2F_Front_x2F_Curly">
	<g id="Head" transform="translate(54.000000, 31.000000)">
		<path class="st0" d="M10.3,26.8C6.1,21.9,3.4,16.1,3.9,9.4c1.3-19.1,27.8-14.8,33-5.2s4.5,34-2.1,35.7c-2.7,0.7-8.3-1-14.1-4.5
			L24.3,61H2.9L10.3,26.8z"/>
	</g>
	<path id="hair" class="st1" d="M100.3,21.9c-0.5-1.6-1.6-2.9-3.2-3.3c-0.4-0.1-0.8-0.2-1.2-0.2c-0.2,0-0.2,0.1-0.2-0.1
		c-0.1-0.1-0.1-0.2-0.1-0.3c-0.1-0.2-0.2-0.5-0.2-0.8c-0.3-0.9-0.9-1.7-1.6-2.3c-1.2-1.2-3-2.1-4.8-2.3c-0.9-0.1-2,0.1-2.9,0.4
		c-0.5,0.2-0.9,0.4-1.4,0.6c-0.2,0.1-0.5,0.4-0.7,0.4c-0.2,0-0.5-0.4-0.5-0.5C82,12.5,80.1,12,78.3,12c-2.1,0-4.1,0.2-5.9,1.4
		c-0.4,0.3-0.7,0.5-1.1,0.9c-0.2,0.2-0.4,0.3-0.5,0.5c-0.1,0.1-0.2,0.2-0.3,0.3c-0.2,0.2-0.2,0.2-0.4,0.2c-0.9-0.5-1.9-0.8-2.8-0.6
		c-0.6,0.1-1.2,0.2-1.7,0.5c-0.2,0.1-0.6,0.4-0.8,0.4c-0.2,0-0.6-0.3-0.9-0.4c-1.1-0.4-2.3-0.5-3.4-0.3S58,15.5,57,16.1
		c-0.5,0.3-0.9,0.6-1.2,1.1c-0.2,0.2-0.3,0.4-0.5,0.6c-0.1,0.1-0.3,0.2-0.3,0.4c0-0.1-1.3-0.6-1.4-0.6c-0.7-0.2-1.3-0.2-2,0.1
		c-1.2,0.4-2.3,1.3-3.1,2.3c-0.5,0.5-0.9,1-1.2,1.6c-0.2,0.2-0.3,0.5-0.5,0.9c-0.1,0.2-0.1,0.3-0.2,0.5c-0.1,0.2-0.2,0.2-0.4,0.2
		c-1,0.4-2,0.9-2.7,1.7s-1.2,1.8-1.3,2.9c0,0.1,0,0.3-0.1,0.4c-0.1,0.1-0.2,0-0.3,0c-0.2,0-0.5,0.1-0.8,0.2
		c-0.5,0.1-0.9,0.3-1.4,0.5c-1.7,0.9-3,2.4-3.5,4.2c-0.6,1.9-0.6,4.1,0.2,5.9c0.2,0.3,0.2,0.6,0.5,0.9c0.1,0.2,0.2,0.2,0.1,0.3
		c-0.1,0.2-0.2,0.4-0.3,0.5c-0.3,0.6-0.5,1.3-0.6,2c-0.2,1.1-0.3,2.3-0.1,3.4c0.1,0.5,0.2,1,0.5,1.5c0.2,0.2,0.3,0.5,0.5,0.7
		c0.1,0.1,0.2,0.2,0.3,0.3c0.1,0.1,0.2,0.1,0.2,0.2c0.2,0.2,0.2,0,0.1,0.2c-0.1,0.3-0.3,0.6-0.4,0.9c-0.2,0.3-0.2,0.6-0.3,0.9
		c-0.2,0.6-0.4,1.3-0.5,2c-0.2,1.3-0.2,2.7,0.5,3.9c0.2,0.5,0.6,0.9,1.1,1.3c0.2,0.2,0.5,0.3,0.7,0.5c0.2,0.1,0.3,0.1,0.4,0.2
		c0.1,0.2,0,0.4-0.1,0.5c-0.2,1.3-0.3,2.7,0.1,4c0.4,1.2,1.2,2.3,2.2,3c2,1.3,4.7,1.2,6.8,0.2c0.5-0.3,1.1-0.6,1.6-1
		c1.2,1.6,3.6,1.6,5.3,1.1c2.1-0.5,3.8-2,4.8-4c1.3,1.6,4.1,1.1,5.1-0.7c0.2-0.5,0.4-0.9,0.5-1.4c0-0.2,0-0.5,0.1-0.8
		c0-0.3,0.2-0.6,0.4-0.9c0.2-0.6,0.4-1.2,0.4-1.9c0-0.3-0.1-0.7-0.1-1c0-0.3,0.1-0.6,0.1-0.9c-0.5,0.1-1.2-0.1-1.7-0.2
		s-1-0.5-1.3-0.9c-0.9-0.9-1.3-2-1.6-3.1c-0.8-2.5-0.5-5.5,2-6.8c1.2-0.6,4.7-0.6,6-0.3c1.5,0.3,3.1,3.5,3.2,3.8
		c0.1,0.2,0,0.4,0.2,0.5c0.4,0.3,1-0.2,1.2-0.5c0.5-0.4,0.9-0.9,1.1-1.5c0.6-1.2,1.2-2.5,1.6-3.8c0.3-1,0.5-2,0.9-3
		c0.4-0.9,0.9-1.9,1.9-2.4c1-0.6,2.1-0.9,3.2-1.3s2.1-0.9,3-1.6c0.2-0.2,0.4-0.4,0.5-0.5c0.1-0.2,0.2-0.5,0.4-0.5
		c0.3-0.2,0.7,0.2,0.9,0.4c1.2,0.8,2.2,1.8,3,2.9c0.8,1.1,1.4,2.2,2,3.5c0.4,0.9,0.6,2.1,1.3,2.9c0.3,0.3,2.6,0.5,3.3,0.2
		s1.6-1.1,1.8-1.6c0.2-0.5,0.3-1,0.2-1.6c-0.1-0.3-0.2-0.6-0.2-0.9c-0.1-0.2-0.1-0.5-0.2-0.8c-0.2-0.5-0.6-0.8-1.2-0.9
		c0.5-0.5,0.9-1.1,1.2-1.7c0.3-0.7,0.5-1.5,0.6-2.2c0.1-0.6,0-1.3-0.4-1.7c-0.3-0.5-0.9-0.9-1.5-1.2c0.8-0.6,1.5-1.4,2-2.3
		C100.1,25.9,100.8,23.9,100.3,21.9z"/>
</g>
</svg>
