<?xml version="1.0" encoding="utf-8"?>
<!-- Generator: Adobe Illustrator 26.0.1, SVG Export Plug-In . SVG Version: 6.00 Build 0)  -->
<svg version="1.1" id="Layer_1" xmlns="http://www.w3.org/2000/svg" xmlns:xlink="http://www.w3.org/1999/xlink" x="0px" y="0px"
	 viewBox="0 0 136 104" style="enable-background:new 0 0 136 104;" xml:space="preserve">
<style type="text/css">
	.st0{fill-rule:evenodd;clip-rule:evenodd;fill:#1F1D2A;}
	.st1{fill-rule:evenodd;clip-rule:evenodd;fill:#A26D69;}
</style>
<desc>Created with Sketch.</desc>
<g id="Head_x2F_Front_x2F_Long">
	<path id="Hair-Back" class="st0" d="M95.8,31c3.6,13.2,8.2,42.8,3.4,47.5H69.1c0-0.1,0-0.1,0-0.2c-11.2-1.2-19.8-10.8-19.8-22.2
		V34.4c0-12.3,10-22.3,22.3-22.3h2.1C84.9,12.1,94.1,20.2,95.8,31z"/>
	<g id="Head" transform="translate(54.000000, 31.000000)">
		<path class="st1" d="M7,21c-4.8-5.6-8-12.5-7.5-20.2C1-21.4,31.9-16.5,38-5.3s5.3,39.6-2.5,41.7c-3.1,0.8-9.7-1.2-16.5-5.2
			l4.2,29.9H-1.6L7,21z"/>
	</g>
	<path id="Hair-Front" class="st0" d="M67.7,48.3C68.9,60.6,68.4,74.6,65,78H34.8c-1.6-29.1,14.6-17.9,14.6-45.3c1-1,2-2,2.9-2.8
		v-0.8c5.2-10.8,11.8-16.1,19.8-16.1c12,0,15.8,5.6,19,10.4C88.8,31.7,79.4,33,71,38.1c-1-0.8-2.3-1.2-3.6-1.2
		c-3.1,0-5.7,2.6-5.7,5.7c0,3.1,2.6,5.7,5.7,5.7C67.5,48.3,67.6,48.3,67.7,48.3z"/>
</g>
</svg>
