<?xml version="1.0" encoding="utf-8"?>
<!-- Generator: Adobe Illustrator 26.0.2, SVG Export Plug-In . SVG Version: 6.00 Build 0)  -->
<svg version="1.1" id="Layer_1" xmlns="http://www.w3.org/2000/svg" xmlns:xlink="http://www.w3.org/1999/xlink" x="0px" y="0px"
	 viewBox="0 0 500 500" style="enable-background:new 0 0 500 500;" xml:space="preserve">
<style type="text/css">
	.st0{fill-rule:evenodd;clip-rule:evenodd;fill:#89C5CC;}
	.st1{fill-rule:evenodd;clip-rule:evenodd;fill:#DDE3E9;}
	.st2{fill-rule:evenodd;clip-rule:evenodd;fill:#C1DEE2;}
	.st3{fill-rule:evenodd;clip-rule:evenodd;fill:#69A1AC;}
	.st4{opacity:0.6;}
	.st5{fill-rule:evenodd;clip-rule:evenodd;fill:#F2F2F2;}
	.st6{fill-rule:evenodd;clip-rule:evenodd;fill:#FFFFFF;}
	.st7{fill-rule:evenodd;clip-rule:evenodd;fill:#C5CFD6;}
	.st8{fill-rule:evenodd;clip-rule:evenodd;fill:#AFB9C5;}
</style>
<g>
	<desc>Created with Sketch.</desc>
	<g id="Scene_x2F_Wireframe_00000039851957659617247150000013285516510858393219_">
		<path id="Twisted-Leaf_00000124139279990698460860000007208866936325144468_" class="st0" d="M450.7,206c-0.3-0.2-1.1-0.3-1.4-0.4
			c-1.5-0.3-3-0.4-4.5-0.4c-4.6,0-9.4,0.5-13.9,1.3c-2.9,0.5-6.4,2.2-9.3,1.3c-5-1.6-10.1-1.5-14.9,0.8c-4.4,2.1-7.7,6-9.6,10.3
			c-0.3,0.6-1.5,3-1.8,4.6c-0.1,0.3-0.3,0.7-0.4,1c-0.4,0.9-0.7,1.9-1,2.9c-0.1,0.4-0.4,1.3-0.1,1.5c-0.6,1.1-1.1,2.2-1.6,3.4
			c-1.3,3.4-2.7,7.1-3.1,10.8c-0.2,1.3-0.2,2.7,0,4c0.1,0.7,0,2,0.5,2.5c1,1.1,1.4-0.4,1.3-1.1c-0.8-5.4,0.8-10.5,2.6-15.6
			c1.2-3.3,3.2-6.3,5.4-9.1c1.8-2.2,3.7-4,6.2-5.4c3-1.8,6.3-3.2,9.5-4.7c2.1-1,4.2-1.9,6.4-2.7c0.5-0.2,1.2-0.7,1.8-0.7
			c1.1,0,2.7,0.8,3.8,1.1c3.6,1,7.2,2.3,11,2.9c2.4,0.3,4.6,0,6.8-0.8c0.2-0.1,0.6-0.3,1.1-0.6c1.7-0.6,3.2-1.4,4.6-2.6
			c0.8-0.7,1.5-1.5,2.1-2.3c0.2-0.2,0.3-0.5,0.3-0.8c0.1-0.1,0.2-0.2,0.3-0.3C453.1,206,451.7,206,450.7,206"/>
		<path id="Fill-16_00000137102683066027305990000015395456291069626800_" class="st1" d="M74,270.6c-0.9,0.7-1.8,1.5-2.7,2.3
			c-0.7,0.6-1.8,1.3-2.1,2.2c-0.2,0.9,0.5,1.8,1.2,2.4c3.3,3,6.9,5,11.5,5.4c7,0.5,13-1.3,19.1-4.8c4.2-2.5,7.1-6.1,7.7-11
			c5.1,2.1,9.9,5,14.1,8.6c2.1,1.8,3.8,3.7,5.5,5.9c1,1.4,2.1,2.8,3,4.2c0.4,0.6,0.8,1.8,1.5,2.1c0.8,0.4,1.7-0.2,1.7-1.1
			c0-0.7-0.8-1.6-1.2-2.2c-0.6-1-1.2-2-1.9-2.9c-1.1-1.6-2.2-3.1-3.4-4.6c-2.7-3.3-6.1-6-9.7-8.3c-6.8-4.4-14.3-7.2-22.6-7.5
			c-5.1-0.1-9.4,1.6-13.7,4.2C79.2,267,76.4,268.6,74,270.6"/>
		<path id="Leaf_00000137852840453495160310000005738427499623381679_" class="st2" d="M140,249.1c-5.3-5.5-10.6-10.9-16.6-15.7
			c-3.5-2.8-7.2-5.4-10.8-8.1c0.4,0.4,0.8,0.7,1.2,1.1c-1.1-0.8-2.6-1.2-3.8-1.9c-1.3-0.8-2.6-1.7-3.9-2.6c-2.4-1.8-4.8-3.6-7.3-5.3
			c-2.8-1.9-5.7-3.6-8.5-5.4c-2.4-1.5-4.8-3.2-7.4-4.5c-1.4-0.7-2.8-1.5-4.2-2.2c-0.5-0.2-5.3-3.3-5.3-3.3c0.3-0.2,2.7,0.9,3,1.1
			c1.1,0.4,2.1,1,3.2,1.5c-0.6-1.1-1-2.3-1.3-3.6c-0.1-0.4-0.7-3.2-0.4-3.4c0.2-0.1,1.7,4.9,1.8,5.4c0.1,0.4,0.1,1,0.2,1.3
			c0.2,0.6,0.2,0.4,0.7,0.8c0.8,0.6,2,1,2.9,1.5c0.5,0.3,2,1.4,2.9,1.7c2.8,1.3,5.6,3.4,8.2,5.1c-0.7-1.3-1.2-2.7-1.6-4.1
			c-0.1-0.3-1.1-3.4-0.8-3.5c0.3-0.2,2.1,4.4,2.3,4.9c0.2,0.8,0.2,1.7,0.5,2.5c0.3,0.9,1.2,1.2,2,1.7c2.9,1.9,5.8,3.8,8.5,5.9
			c3-5.4-0.5-11.9-3.4-16.4c-2.1-3.3-5-6.1-8-8.5c-4-3.3-8.6-5.9-13.3-8.2c-5.4-2.8-11.2-4.5-17.2-5.3c-3.2-0.4-6.4-0.4-9.6-0.3
			c-1.6,0.1-3.1,0.3-4.5,0.8c-0.7,0.2-1.3,0.5-2,0.8c-0.5,0.2-1.6,0.5-1.9,0.9c-2.3,3-3.4,5.9-3.3,9.6c0.2,3.5,1.3,7.1,2.8,10.2
			c1.7,3.5,3.8,6.7,6.7,9.3c2.2,2,4.6,3.8,7,5.6c8.5,6.2,19.3,11.6,30.4,10.2c3.6-0.4,7-1.7,10.2-3.4c0.7-0.4,1.5-0.8,2.2-1.3
			c0.5-0.3,1.8-1.8,2.2-1.8c0.7-0.1,2.1,1.3,2.7,1.7c4.7,3.1,9.3,6.4,13.7,9.7c4.8,3.6,9.3,7.5,13.7,11.5c1.9,1.7,3.7,3.4,5.5,5.2
			c0.4,0.4,1.5,1.9,2.2,2c0.5,0,0.8-0.4,0.7-0.8C142.2,250.8,140.6,249.7,140,249.1"/>
		<path id="Fill-10_00000033347499540703381530000003416408599415548851_" class="st3" d="M445.1,227.9c-2.1-0.4-4.3-0.4-6.4-0.4
			c-11.2,0.2-22.3,5.5-29.4,14c-6.1,7.2-7.8,16.2-9,25.3c-0.1,0.9-0.2,1.8-0.2,2.7c0,0.2,0,0.4-0.1,0.5c-0.5,0.4-0.7,0.9-0.4,1.5
			c-1,2.3-1.9,4.6-2.7,7.1c-2.2,7.1-4.5,14.4-3.1,21.9c0.3-4.1,1-8.3,1.8-12.4c0-0.2,0.1-0.5,0.2-0.7c0,0,0,0,0-0.1
			c0.3-1.2,0.7-2.4,1.1-3.6c0,0,0,0,0,0c0.1-0.2,0.1-0.3,0.2-0.5c0.1-0.3,0.3-0.6,0.4-1c0-0.1,0.1-0.2,0.1-0.3
			c0.7-1.6,1-3.5,1.6-5.2c0.1-0.4,0.3-0.8,0.5-1.2c0,0,0,0,0-0.1c0.4-1,0.9-2,1.4-3.1c0.3-0.2,0.4-0.7,0.6-1.2c0-0.1,0.4-0.7,0.5-1
			c0.3-0.6,0.6-1.1,0.9-1.7c0,0,0,0,0,0c0.3-0.5,0.6-1.1,0.9-1.6c0.1-0.1,0.1-0.2,0.2-0.4c0.1-0.2,0.2-0.4,0.3-0.6
			c1-1.8,2-3.5,3.1-5.2c0.4-0.6,1.3-1.5,1.5-2.2c0,0,0,0,0-0.1c2.4-3.3,5.1-6.3,8.3-8.8c-0.4,0.4-1.2,1.9-1.4,2.1
			c-0.7,0.9-1.4,1.7-2.1,2.5c-1.3,1.5-2.6,3-3.7,4.6c-2.1,2.9-3.9,6-5.6,9.2c0,0,0,0,0,0.1c-0.9,1.1-1.4,2.7-2,3.9
			c2.4-1.1,5.1-1.9,7.6-2.9c2.5-1,4.9-2.1,7.3-3.4c3.1-1.7,6.3-3.7,9.3-5.9c3.4-2.1,6.2-5,8.7-8c3-3.6,5.7-7.2,7.4-11.5
			c0.8-2.1,1.5-4.4,1.9-6.6c0-0.1,0-0.2,0.1-0.3c0.4-0.8,0.7-1.6,1-2.4C446.1,229.8,447.2,228.3,445.1,227.9"/>
		<path id="Leave-the-Leaf_x21__00000054946285370210828490000012064065022668262033_" class="st0" d="M96.7,243
			c-0.6-0.7-1.4-1.3-2.2-1.8c-0.2-0.1-1.8-0.9-1.9-0.7C92.3,240.9,96.5,242.8,96.7,243 M104.3,238.3c0,0,0.5,1,0.7,1.3
			c0.3,0.6,0.6,1.2,0.9,1.9C105.5,240.4,105.1,239.3,104.3,238.3 M65.5,246c-0.5,0.2-1.2-0.5-0.5-0.7c0.6-0.1,0.5-0.2,0.8-0.6
			c0.2-0.4,0.3-0.8,0.5-1.2c0.4-0.8,0.8-1.6,1.3-2.3c1.1-1.6,2.5-2.9,4.1-4c2.7-2,5.7-3.8,9-4.7c5.1-1.4,11-1.5,16.1-0.5
			c3.2,0.6,6.1,1.7,8.2,4.3c1.1,1.3,1.9,2.8,2.2,4.4c0.1,0.4,0.1,0.9,0.2,1.3c0.2,0.6,0.1,0.5,0.9,0.6c0.8,0.1,1.7,0.3,2.5,0.4
			c2.2,0.4,4.3,0.8,6.5,1.4c0.7,0.2,1.4,0.4,2,0.7c0.5,0.2,2.5,0.9,2.7,1.5c0.4,1.1-1,0.6-1.4,0.4c-0.4-0.2-0.7-0.4-1.1-0.6
			c-1-0.4-2-0.8-3-1.1c-1.1-0.3-2.3-0.5-3.4-0.7c-1.1-0.2-2.1-0.4-3.2-0.6c-0.6-0.1-1.2-0.2-1.8-0.3c-0.2,0-0.6-0.2-0.5,0.1
			c-1.2-0.2-2.6-0.2-3.8-0.3c-1.5-0.1-3.1-0.1-4.7-0.1c-1.1,0-2.2,0.1-3.4,0.3c-0.7,0.1-1.3,0.2-1.9,0.4c-0.4,0.1-1.7,0.3-1.9,0.6
			c0.1-0.1,1.6,0,1.8,0c0.8,0,1.5-0.1,2.3-0.2c1.4-0.2,2.9-0.2,4.3-0.2c0,0.3-1,0.7-1.2,0.9c-0.5,0.4-1.1,0.8-1.5,1.2
			c-0.8,0.8-1.9,1.8-2.5,2.7c0.2-0.3,1-0.6,1.3-0.8c0.5-0.3,1-0.7,1.4-1.1c0.4-0.4,0.8-0.7,1.2-1.1c0.4-0.4,0.9-1.2,1.4-1.5
			c0,0,0.2,0.2,0.4,0.1c0.1-0.1,0.3-0.4,0.3-0.4c0.5-0.2,1.4,0,1.8,0.1c1.3,0.1,2.5,0.1,3.8,0.2c0.4,0,0.7-0.1,0.9,0.2
			c0.2,0.3-0.1,1.1-0.2,1.5c-0.3,1.3-0.8,2.4-1.7,3.3c-1.6,1.8-3.6,3-5.8,3.8c-8.6,3.1-17.6,4.3-26.2,1.1
			C70.2,253.1,64.9,250.7,65.5,246"/>
		
			<g id="Background-Shape-2_00000107566742068655034320000008171285604456714943_" transform="translate(39.000000, 358.000000)" class="st4">
			<path id="Background-Shape_00000131347464541147863060000006550669203171819409_" class="st1" d="M418,34.2
				c5.8,39.4-135.3,65.1-256.7,47.1S-15.8-6.6,42.1-43.9S412.2-5.2,418,34.2z"/>
		</g>
		<g id="Mobile3_00000018226281170131722140000008615492377205889409_" transform="translate(138.000000, 76.000000)">
			<path id="Container_00000116233358840008833900000002986554014299005843_" class="st5" d="M-15.3,58.3h86.2
				c2.7,0,4.8,2.2,4.8,4.8v172.4c0,2.7-2.2,4.8-4.8,4.8h-86.2c-2.7,0-4.8-2.2-4.8-4.8V63.1C-20.1,60.5-17.9,58.3-15.3,58.3z"/>
			<circle id="Touch_00000003827052410344381350000002162432606807639219_" class="st6" cx="27.4" cy="219.6" r="9"/>
			<g id="Camera_00000160885270530052753080000004637848698365906818_" transform="translate(64.000000, 16.000000)">
				<circle id="Lens_00000114783385802212970800000012949155420622375614_" class="st6" cx="-44.4" cy="52.9" r="1.2"/>
				<path id="Sensor_00000021800028115152556100000001365360355724025278_" class="st6" d="M-39,51.9h10.2c0.7,0,1.2,0.5,1.2,1.2
					l0,0c0,0.7-0.5,1.2-1.2,1.2H-39c-0.7,0-1.2-0.5-1.2-1.2l0,0C-40.2,52.5-39.6,51.9-39,51.9z"/>
			</g>
			<g id="Rows_00000147189579047120135030000008059556726089801627_" transform="translate(14.000000, 28.000000)">
				<g id="Row_00000145775904334805262070000017292195261737352118_">
					<path id="Background_00000065034333477478130490000017192184912888018829_" class="st6" d="M-23.2,47.2h74.2
						c1.3,0,2.4,1.1,2.4,2.4v27.7c0,1.3-1.1,2.4-2.4,2.4h-74.2c-1.3,0-2.4-1.1-2.4-2.4V49.6C-25.7,48.3-24.6,47.2-23.2,47.2z"/>
					<g id="Text_00000088098237271161573160000000108114342378937782_" transform="translate(39.000000, 16.200000)">
						<path id="Name_00000056406976704240904090000014367578498072583598_" class="st1" d="M-39.3,40.6H1.1c1,0,1.8,0.8,1.8,1.8v1.2
							c0,1-0.8,1.8-1.8,1.8h-40.4c-1,0-1.8-0.8-1.8-1.8v-1.2C-41.1,41.4-40.3,40.6-39.3,40.6z"/>
						<path id="Name_00000179633875605650468910000009177946057872012477_" class="st1" d="M-39.3,48.5h25.9c1,0,1.8,0.8,1.8,1.8
							v1.2c0,1-0.8,1.8-1.8,1.8h-25.9c-1,0-1.8-0.8-1.8-1.8v-1.2C-41.1,49.3-40.3,48.5-39.3,48.5z"/>
					</g>
					<circle id="Avatar_00000005229240595245237710000003845147756089034419_" class="st7" cx="-13.1" cy="63.2" r="7.2"/>
				</g>
				<g id="Row_00000026882203600657507970000007947184634829197213_" transform="translate(0.000000, 62.000000)">
					<path id="Background_00000081631807805158393280000008720870636053689222_" class="st6" d="M-23.2,22.6h74.2
						c1.3,0,2.4,1.1,2.4,2.4v20.5c0,1.3-1.1,2.4-2.4,2.4h-74.2c-1.3,0-2.4-1.1-2.4-2.4V25C-25.7,23.6-24.6,22.6-23.2,22.6z"/>
					<g id="Text_00000070819797684679243070000009191641177217838755_" transform="translate(39.000000, 12.600000)">
						<path id="Name_00000098923776056056635590000010143303923105280956_" class="st1" d="M-39.3,17.2H1.1c1,0,1.8,0.8,1.8,1.8v0
							c0,1-0.8,1.8-1.8,1.8h-40.4c-1,0-1.8-0.8-1.8-1.8v0C-41.1,18-40.3,17.2-39.3,17.2z"/>
						<path id="Name_00000063605351152997852600000010132021808784065706_" class="st1" d="M-39.3,23.8h25.9c1,0,1.8,0.8,1.8,1.8v0
							c0,1-0.8,1.8-1.8,1.8h-25.9c-1,0-1.8-0.8-1.8-1.8v0C-41.1,24.6-40.3,23.8-39.3,23.8z"/>
					</g>
					<circle id="Avatar_00000161603792686422733710000006265645588158850494_" class="st7" cx="-13.1" cy="35" r="7.2"/>
				</g>
				<g id="Row_00000142887209270310289100000017887901827181855883_" transform="translate(0.000000, 112.000000)">
					<path id="Background_00000042712407081180474660000009168480285578682547_" class="st6" d="M-23.2,2.7h74.2
						c1.3,0,2.4,1.1,2.4,2.4v20.5c0,1.3-1.1,2.4-2.4,2.4h-74.2c-1.3,0-2.4-1.1-2.4-2.4V5.1C-25.7,3.8-24.6,2.7-23.2,2.7z"/>
					<g id="Text_00000158716923946860235680000013286713525682864302_" transform="translate(39.000000, 12.600000)">
						<path id="Name_00000139259678458388326730000013264143438462816952_" class="st1" d="M-39.3-2.7H1.1c1,0,1.8,0.8,1.8,1.8v0
							c0,1-0.8,1.8-1.8,1.8h-40.4c-1,0-1.8-0.8-1.8-1.8v0C-41.1-1.9-40.3-2.7-39.3-2.7z"/>
						<path id="Name_00000054255187345799040840000011307021385235381944_" class="st1" d="M-39.3,4h25.9c1,0,1.8,0.8,1.8,1.8v0
							c0,1-0.8,1.8-1.8,1.8h-25.9c-1,0-1.8-0.8-1.8-1.8v0C-41.1,4.8-40.3,4-39.3,4z"/>
					</g>
					<circle id="Avatar_00000001625084325906051090000006183830215842299289_" class="st8" cx="-13.1" cy="15.1" r="7.2"/>
				</g>
				<g id="Row_00000146484638805447627060000010863236332996018330_" transform="translate(0.000000, 162.000000)">
					<path id="Background_00000131350889610464042970000009256299854405053336_" class="st6" d="M-23.2-17.2h74.2
						c1.3,0,2.4,1.1,2.4,2.4V5.8c0,1.3-1.1,2.4-2.4,2.4h-74.2c-1.3,0-2.4-1.1-2.4-2.4v-20.5C-25.7-16.1-24.6-17.2-23.2-17.2z"/>
					<g id="Text_00000182506864054799846000000015827023831126588852_" transform="translate(39.000000, 12.600000)">
						<path id="Name_00000150080281965643598460000004059081186396313514_" class="st1" d="M-39.3-22.5H1.1c1,0,1.8,0.8,1.8,1.8v0
							c0,1-0.8,1.8-1.8,1.8h-40.4c-1,0-1.8-0.8-1.8-1.8v0C-41.1-21.7-40.3-22.5-39.3-22.5z"/>
						<path id="Name_00000012474937484059793370000007086843861088617387_" class="st1" d="M-39.3-15.9h25.9c1,0,1.8,0.8,1.8,1.8v0
							c0,1-0.8,1.8-1.8,1.8h-25.9c-1,0-1.8-0.8-1.8-1.8v0C-41.1-15.1-40.3-15.9-39.3-15.9z"/>
					</g>
					<circle id="Avatar_00000149370581164292931570000013793055873785589429_" class="st7" cx="-13.1" cy="-4.7" r="7.2"/>
				</g>
			</g>
		</g>
		<g id="Mobile3_00000016796724366979217200000010050448304234146992_" transform="translate(156.000000, 102.000000)">
			<g id="Group_00000072984921253019588730000014745340399618838455_" transform="translate(0.000000, 218.000000)">
				<path id="Fill-16_00000083083763941042966740000003412797430708393629_" class="st0" d="M-20-38.8c-0.8,0-1.6,0-2.4,0.1
					c-0.6,0-1.5-0.1-2.1,0.3c-0.5,0.4-0.5,1.2-0.4,1.8c0.4,3,1.5,5.7,3.8,7.8c3.5,3.3,7.4,5,12.2,5.7c3.3,0.5,6.4-0.2,8.8-2.6
					c1.8,3.3,3.1,7,3.8,10.6C4-13.3,4.1-11.5,4-9.7c0,1.2-0.1,2.4-0.2,3.6C3.7-5.6,3.5-4.8,3.7-4.3c0.2,0.6,1,0.6,1.4,0.1
					c0.3-0.4,0.2-1.2,0.3-1.7c0.1-0.8,0.2-1.6,0.3-2.4c0.1-1.3,0.2-2.6,0.2-3.9c0-2.9-0.7-5.8-1.5-8.6c-1.7-5.3-4.5-10-8.7-13.7
					c-2.6-2.3-5.7-3.2-9.1-3.7C-15.7-38.5-17.9-38.8-20-38.8"/>
				<path id="Fill-18_00000129175540157524727110000010389947601002855071_" class="st0" d="M-7.7-17.7c-8.6,0-14.4,6.9-17.2,14.2
					c-1,2.7-1.3,5.7-1.7,8.6c-0.1,0.9-0.1,2.3-0.5,3.1c-0.1,0.3-0.4,0.4-0.3,0.8c0.1,0.2,0.3,0.4,0.5,0.4c0.5,0.1,1.3-0.5,1.8-0.7
					c3.9-1.9,6.4-4.9,8.5-8.6c1.3-2.3,2.6-4.6,3.3-7.1c0.5-1.5,0.7-3.1,0.9-4.7c0.1-0.6,0.1-1.3,0.1-1.9c0-0.6-0.3-0.9-0.5-1.5
					c2.9-1.1,6.1-1.4,9-0.3c2.7,1,4.9,3.1,6.2,5.6c0.3,0.7,0.6,1.4,0.8,2.1c0.1,0.5,0.1,1.1,0.3,1.5c0.5,1,1.7,0.3,1.6-0.6
					C4.9-9.5,3.4-12.1,1.5-14C-1-16.3-4.3-17.7-7.7-17.7"/>
			</g>
			<path id="Container_00000069361336440693210450000009706523776116321456_" class="st1" d="M6.5,48h86.2c2.7,0,4.8,2.2,4.8,4.8
				v172.4c0,2.7-2.2,4.8-4.8,4.8H6.5c-2.7,0-4.8-2.2-4.8-4.8V52.8C1.7,50.1,3.9,48,6.5,48z"/>
			<circle id="Touch_00000047057159794605888940000011547113275333819571_" class="st6" cx="49.2" cy="209.3" r="9"/>
			<g id="Camera_00000043456947915798613520000017642518289060288155_" transform="translate(112.000000, 16.000000)">
				<circle id="Lens_00000021104788536504978730000016063790585503829921_" class="st6" cx="-70.6" cy="42.6" r="1.2"/>
				<path id="Sensor_00000056426063965150864600000005510715758227840936_" class="st6" d="M-65.2,41.6h10.2c0.7,0,1.2,0.5,1.2,1.2
					l0,0c0,0.7-0.5,1.2-1.2,1.2h-10.2c-0.7,0-1.2-0.5-1.2-1.2l0,0C-66.4,42.2-65.9,41.6-65.2,41.6z"/>
			</g>
			<g id="Rows_00000132060692246987315760000000138811378187781295_" transform="translate(62.000000, 28.000000)">
				<g id="Row_00000044151899149701766270000015395094881753485499_">
					<path id="Container_00000151516064390419512540000004483966371958726068_" class="st6" d="M-49.5,36.9h74.2
						c1.3,0,2.4,1.1,2.4,2.4V67c0,1.3-1.1,2.4-2.4,2.4h-74.2c-1.3,0-2.4-1.1-2.4-2.4V39.3C-51.9,37.9-50.8,36.9-49.5,36.9z"/>
					<g id="Text-Stuff_00000127017650027504509290000013905445421582335650_" transform="translate(9.000000, 16.200000)">
						<path id="Label_00000114057745087352589330000016550837453572024473_" class="st1" d="M-53.6,30.3h40.4c1,0,1.8,0.8,1.8,1.8
							v1.2c0,1-0.8,1.8-1.8,1.8h-40.4c-1,0-1.8-0.8-1.8-1.8v-1.2C-55.4,31.1-54.6,30.3-53.6,30.3z"/>
						<path id="Label_00000070820386033088014780000001210653782284960645_" class="st1" d="M-53.6,38.1h25.9c1,0,1.8,0.8,1.8,1.8
							v1.2c0,1-0.8,1.8-1.8,1.8h-25.9c-1,0-1.8-0.8-1.8-1.8V40C-55.4,39-54.6,38.1-53.6,38.1z"/>
					</g>
					<g id="Check_00000065753357529067142810000001523818342932125841_" transform="translate(110.000000, 20.000000)">
						<circle id="Background_00000035504476666088144970000013226428740305765552_" class="st1" cx="-91.4" cy="32.9" r="4.2"/>
						<circle id="Indicator_00000063602938825571371660000011426144171814909865_" class="st5" cx="-91.4" cy="32.9" r="1.8"/>
					</g>
				</g>
				<g id="Row_00000120517263291025472760000013320862809660021680_" transform="translate(0.000000, 62.000000)">
					<path id="Background_00000150099377461466790580000010411927667381530031_" class="st6" d="M-49.5,12.2h74.2
						c1.3,0,2.4,1.1,2.4,2.4v20.5c0,1.3-1.1,2.4-2.4,2.4h-74.2c-1.3,0-2.4-1.1-2.4-2.4V14.6C-51.9,13.3-50.8,12.2-49.5,12.2z"/>
					<g id="Text_00000152252774111154943010000014632890872346363010_" transform="translate(39.000000, 12.600000)">
						<path id="Name_00000134246913994252075470000000774841620918550961_" class="st1" d="M-65.5,6.9h40.4c1,0,1.8,0.8,1.8,1.8v0
							c0,1-0.8,1.8-1.8,1.8h-40.4c-1,0-1.8-0.8-1.8-1.8v0C-67.4,7.7-66.5,6.9-65.5,6.9z"/>
						<path id="Name_00000147198091964702984170000003366838088248644749_" class="st1" d="M-65.5,13.5h25.9c1,0,1.8,0.8,1.8,1.8v0
							c0,1-0.8,1.8-1.8,1.8h-25.9c-1,0-1.8-0.8-1.8-1.8v0C-67.4,14.3-66.5,13.5-65.5,13.5z"/>
					</g>
					<circle id="Avatar_00000155860818549505848410000012043117688156280479_" class="st7" cx="-39.3" cy="24.6" r="7.2"/>
				</g>
				<g id="Row_00000178199666466807890970000011964666910280313521_" transform="translate(0.000000, 112.000000)">
					<path id="Container_00000060748706008686414920000013518470902813069740_" class="st6" d="M-49.5-7.6h74.2
						c1.3,0,2.4,1.1,2.4,2.4v20.5c0,1.3-1.1,2.4-2.4,2.4h-74.2c-1.3,0-2.4-1.1-2.4-2.4V-5.2C-51.9-6.5-50.8-7.6-49.5-7.6z"/>
					<g id="Text-Stuff_00000034792836621825935280000016701344844465569708_" transform="translate(9.000000, 12.600000)">
						<path id="Label_00000179646204384695535130000012577928614095796403_" class="st1" d="M-53.6-13h40.4c1,0,1.8,0.8,1.8,1.8v0
							c0,1-0.8,1.8-1.8,1.8h-40.4c-1,0-1.8-0.8-1.8-1.8v0C-55.4-12.2-54.6-13-53.6-13z"/>
						<path id="Label_00000010294647897619203150000016465533461146539682_" class="st8" d="M-53.6-6.4h25.9c1,0,1.8,0.8,1.8,1.8v0
							c0,1-0.8,1.8-1.8,1.8h-25.9c-1,0-1.8-0.8-1.8-1.8v0C-55.4-5.5-54.6-6.4-53.6-6.4z"/>
					</g>
					<g id="Check_00000052788689611004706110000016765428248319164086_" transform="translate(110.000000, 14.000000)">
						<circle id="Background_00000134929198991203410990000012629328010558492054_" class="st1" cx="-91.4" cy="-9.2" r="4.2"/>
						<circle id="Indicator_00000100367929771065968830000018131426573745991317_" class="st5" cx="-91.4" cy="-9.2" r="1.8"/>
					</g>
				</g>
				<g id="Row_00000108270845208754069630000002151977311006828716_" transform="translate(0.000000, 162.000000)">
					<path id="Background_00000119077901155899562480000001921782633397452978_" class="st6" d="M-49.5-27.5h74.2
						c1.3,0,2.4,1.1,2.4,2.4v20.5c0,1.3-1.1,2.4-2.4,2.4h-74.2c-1.3,0-2.4-1.1-2.4-2.4v-20.5C-51.9-26.4-50.8-27.5-49.5-27.5z"/>
					<g id="Text_00000114057098679424374940000016738996375363659437_" transform="translate(39.000000, 12.600000)">
						<path id="Name_00000028284072668537715460000007777465817943514295_" class="st1" d="M-65.5-32.8h40.4c1,0,1.8,0.8,1.8,1.8v0
							c0,1-0.8,1.8-1.8,1.8h-40.4c-1,0-1.8-0.8-1.8-1.8v0C-67.4-32-66.5-32.8-65.5-32.8z"/>
						<path id="Name_00000054958001503136567130000007534507539114109064_" class="st1" d="M-65.5-26.2h25.9c1,0,1.8,0.8,1.8,1.8v0
							c0,1-0.8,1.8-1.8,1.8h-25.9c-1,0-1.8-0.8-1.8-1.8v0C-67.4-25.4-66.5-26.2-65.5-26.2z"/>
					</g>
					<circle id="Avatar_00000005225194415814090070000008557145938494675368_" class="st7" cx="-39.3" cy="-15.1" r="7.2"/>
				</g>
			</g>
		</g>
		<g id="Web_00000113343094369634027090000013771081332367758990_" transform="translate(270.000000, 127.000000)">
			<path id="Container_00000115492426744396087230000016594643689533225123_" class="st5" d="M-67.7,38.1h192.3
				c2.7,0,4.8,2.2,4.8,4.8v198.9c0,2.7-2.2,4.8-4.8,4.8H-67.7c-2.7,0-4.8-2.2-4.8-4.8V42.9C-72.5,40.2-70.4,38.1-67.7,38.1z"/>
			<path id="Background_00000099648934814324701100000007040493545086741421_" class="st6" d="M82.4,64H115c2.7,0,4.8,2.2,4.8,4.8
				V108c0,2.7-2.2,4.8-4.8,4.8H82.4c-2.7,0-4.8-2.2-4.8-4.8V68.8C77.6,66.1,79.8,64,82.4,64z"/>
			<g id="Profile-Info_00000021820334513561354670000013745948607523475594_" transform="translate(259.000000, 58.000000)">
				<circle id="Avatar_00000082349304282059534560000017105726136091074696_" class="st1" cx="-160.4" cy="24.4" r="9.6"/>
				<path id="Name_00000081619369613674071130000009350054604500852895_" class="st1" d="M-173.7,36.7h26.5c1,0,1.8,0.8,1.8,1.8l0,0
					c0,1-0.8,1.8-1.8,1.8h-26.5c-1,0-1.8-0.8-1.8-1.8l0,0C-175.5,37.5-174.7,36.7-173.7,36.7z"/>
				<path id="Name_00000113353367573025864230000017236384699339113645_" class="st1" d="M-168.8,42.7h16.9c1,0,1.8,0.8,1.8,1.8l0,0
					c0,1-0.8,1.8-1.8,1.8h-16.9c-1,0-1.8-0.8-1.8-1.8l0,0C-170.7,43.6-169.8,42.7-168.8,42.7z"/>
			</g>
			<path id="Header_00000011033391921263809890000010350735161031111608_" class="st7" d="M-67.7,38.1h192.3c2.7,0,4.8,2.2,4.8,4.8
				v11.5h-202V42.9C-72.5,40.2-70.4,38.1-67.7,38.1z"/>
			<g id="Buttons_00000141450349130968244660000000359508282857477041_" transform="translate(9.000000, 10.000000)">
				<circle id="buttons_00000027596580604876689250000010550526195213946293_" class="st5" cx="-73.8" cy="36.2" r="2.4"/>
				<circle id="buttons_00000164505039407967310140000005548969520325554321_" class="st5" cx="-66.5" cy="36.2" r="2.4"/>
				<circle id="buttons_00000006681843852385759440000015337920032637637801_" class="st5" cx="-59.3" cy="36.2" r="2.4"/>
			</g>
			<g id="Components_00000132066923834564335170000004917884983143736198_" transform="translate(249.000000, 132.000000)">
				<path id="Background_00000121257187049062343650000018091397043652310669_" class="st6" d="M-166.6-14.4h32.6
					c2.7,0,4.8,2.2,4.8,4.8V97.8c0,2.7-2.2,4.8-4.8,4.8h-32.6c-2.7,0-4.8-2.2-4.8-4.8V-9.5C-171.4-12.2-169.2-14.4-166.6-14.4z"/>
				<g id="Rows_00000056428450506619827840000018248420435299182484_" transform="translate(18.000000, 18.000000)">
					<path id="Data_00000180361840477639691390000008420412068295640748_" class="st1" d="M-176.1-21.5h15.7c1.3,0,2.4,1.1,2.4,2.4
						v10.9c0,1.3-1.1,2.4-2.4,2.4h-15.7c-1.3,0-2.4-1.1-2.4-2.4v-10.9C-178.6-20.4-177.5-21.5-176.1-21.5z"/>
					<path id="Data_00000023967996714207122500000004758822372683539873_" class="st8" d="M-176.1-1h15.7c1.3,0,2.4,1.1,2.4,2.4
						v10.2c0,1.3-1.1,2.4-2.4,2.4h-15.7c-1.3,0-2.4-1.1-2.4-2.4V1.4C-178.6,0.1-177.5-1-176.1-1z"/>
					<path id="Data_00000090279602270251988860000005830848532318855302_" class="st1" d="M-176.1,18.9h15.7c1.3,0,2.4,1.1,2.4,2.4
						v10.2c0,1.3-1.1,2.4-2.4,2.4h-15.7c-1.3,0-2.4-1.1-2.4-2.4V21.3C-178.6,20-177.5,18.9-176.1,18.9z"/>
					<path id="Data_00000048481240396159693160000013255541370759010946_" class="st1" d="M-176.1,58.7h15.7c1.3,0,2.4,1.1,2.4,2.4
						v10.2c0,1.3-1.1,2.4-2.4,2.4h-15.7c-1.3,0-2.4-1.1-2.4-2.4V61.1C-178.6,59.7-177.5,58.7-176.1,58.7z"/>
					<path id="Data_00000137846345759615723230000003569149879718267521_" class="st7" d="M-176.1,38.8h15.7c1.3,0,2.4,1.1,2.4,2.4
						v10.2c0,1.3-1.1,2.4-2.4,2.4h-15.7c-1.3,0-2.4-1.1-2.4-2.4V41.2C-178.6,39.8-177.5,38.8-176.1,38.8z"/>
				</g>
			</g>
			<g id="Rows_00000032622947090021354530000012230157042446229920_" transform="translate(16.000000, 44.000000)">
				<g id="Row_00000170255478974453937540000008548556512780834455_">
					<path id="Container_00000133499476735438571690000011760600187195123647_" class="st6" d="M-76.5,20.6H54.4
						c1.3,0,2.4,1.1,2.4,2.4v23.5c0,1.3-1.1,2.4-2.4,2.4H-76.5c-1.3,0-2.4-1.1-2.4-2.4V23C-78.9,21.7-77.8,20.6-76.5,20.6z"/>
					<g id="Text-Stuff_00000150793445126003411010000004004534754671643071_" transform="translate(9.000000, 14.100000)">
						<path id="Label_00000124136959100978819540000014304731689604717500_" class="st1" d="M-80.6,14.9h97.1c1,0,1.8,0.8,1.8,1.8
							v0.6c0,1-0.8,1.8-1.8,1.8h-97.1c-1,0-1.8-0.8-1.8-1.8v-0.6C-82.4,15.7-81.6,14.9-80.6,14.9z"/>
						<path id="Label_00000052808275568569890390000009354030187020777895_" class="st1" d="M-80.6,21.5h63.9c1,0,1.8,0.8,1.8,1.8
							V24c0,1-0.8,1.8-1.8,1.8h-63.9c-1,0-1.8-0.8-1.8-1.8v-0.6C-82.4,22.4-81.6,21.5-80.6,21.5z"/>
					</g>
					<g id="Check_00000059312005526613676180000007455269333556714412_" transform="translate(193.954198, 16.500000)">
						<circle id="Background_00000145751613074654372640000009804381181277998472_" class="st1" cx="-151.8" cy="18" r="4.2"/>
						<circle id="Indicator_00000020365877166631826110000014227310028068191387_" class="st5" cx="-151.8" cy="18" r="1.8"/>
					</g>
				</g>
				<g id="Row_00000070835526427475008000000017281105331553594559_" transform="translate(0.000000, 55.000000)">
					<path id="Container_00000137124691667667942830000007161591633922959249_" class="st6" d="M-76.5-1.3H54.4
						c1.3,0,2.4,1.1,2.4,2.4v18.7c0,1.3-1.1,2.4-2.4,2.4H-76.5c-1.3,0-2.4-1.1-2.4-2.4V1.1C-78.9-0.2-77.8-1.3-76.5-1.3z"/>
					<g id="Text-Stuff_00000022521138680135252430000005289227344539600780_" transform="translate(9.000000, 11.700000)">
						<path id="Label_00000102523019483979798060000013389177683254504091_" class="st1" d="M-80.8-6.3h97.2c1,0,1.8,0.8,1.8,1.8
							l0,0c0,1-0.8,1.8-1.8,1.8h-97.2c-1,0-1.8-0.8-1.8-1.8l0,0C-82.5-5.5-81.8-6.3-80.8-6.3z"/>
						<path id="Label_00000019644156555271758790000005984374503043515028_" class="st1" d="M-81.6-0.3h65.7c1,0,1.8,0.8,1.8,1.8
							l0,0c0,1-0.8,1.8-1.8,1.8h-65.7c-1,0-1.8-0.8-1.8-1.8l0,0C-83.4,0.5-82.6-0.3-81.6-0.3z"/>
					</g>
					<g id="Check_00000045618040808193703190000001190095163229801347_" transform="translate(193.954198, 12.500000)">
						<circle id="Background_00000065062588363221255800000001289432035264308143_" class="st1" cx="-151.8" cy="-2.3" r="4.2"/>
						<circle id="Indicator_00000106139947705650364260000004644189259136750750_" class="st5" cx="-151.8" cy="-2.3" r="1.8"/>
					</g>
				</g>
				<g id="Row_00000130644625190965144940000014568713997488188079_" transform="translate(0.000000, 102.000000)">
					<path id="Container_00000170240198200779333650000017360187862686045853_" class="st6" d="M-76.5-19.9H54.4
						c1.3,0,2.4,1.1,2.4,2.4V1.2c0,1.3-1.1,2.4-2.4,2.4H-76.5c-1.3,0-2.4-1.1-2.4-2.4v-18.7C-78.9-18.9-77.8-19.9-76.5-19.9z"/>
					<g id="Text-Stuff_00000009590852044252075860000016200107258864182189_" transform="translate(9.000000, 11.700000)">
						<path id="Label_00000091695168115168585050000013807645481378741132_" class="st1" d="M-80.8-25h97.2c1,0,1.8,0.8,1.8,1.8l0,0
							c0,1-0.8,1.8-1.8,1.8h-97.2c-1,0-1.8-0.8-1.8-1.8l0,0C-82.5-24.2-81.8-25-80.8-25z"/>
						<path id="Label_00000072988402083542675320000002197912846841354370_" class="st1" d="M-81.6-19h65.7c1,0,1.8,0.8,1.8,1.8l0,0
							c0,1-0.8,1.8-1.8,1.8h-65.7c-1,0-1.8-0.8-1.8-1.8l0,0C-83.4-18.2-82.6-19-81.6-19z"/>
					</g>
					<g id="Check_00000034767876699786120010000007993574621159007112_" transform="translate(193.954198, 12.500000)">
						<circle id="Background_00000166667372438582954910000010980711874214562985_" class="st1" cx="-151.8" cy="-20.9" r="4.2"/>
						<circle id="Indicator_00000070089382821488738190000004293812607736344229_" class="st8" cx="-151.8" cy="-20.9" r="1.8"/>
					</g>
				</g>
				<g id="Row_00000170266597246330951990000002425521978091073165_" transform="translate(0.000000, 243.000000)">
					<path id="Container_00000118378803234453966620000001728168602144964511_" class="st6" d="M-76.5-75.9H54.4
						c1.3,0,2.4,1.1,2.4,2.4v18.7c0,1.3-1.1,2.4-2.4,2.4H-76.5c-1.3,0-2.4-1.1-2.4-2.4v-18.7C-78.9-74.8-77.8-75.9-76.5-75.9z"/>
					<g id="Text-Stuff_00000154407245756746721000000018101888607457433473_" transform="translate(9.000000, 11.700000)">
						<path id="Label_00000054264559311377357510000007562764121092739992_" class="st1" d="M-80.8-81h97.2c1,0,1.8,0.8,1.8,1.8l0,0
							c0,1-0.8,1.8-1.8,1.8h-97.2c-1,0-1.8-0.8-1.8-1.8l0,0C-82.5-80.2-81.8-81-80.8-81z"/>
						<path id="Label_00000079477391189646993100000011852220410079159198_" class="st1" d="M-81.6-75h65.7c1,0,1.8,0.8,1.8,1.8l0,0
							c0,1-0.8,1.8-1.8,1.8h-65.7c-1,0-1.8-0.8-1.8-1.8l0,0C-83.4-74.2-82.6-75-81.6-75z"/>
					</g>
					<g id="Check_00000128475011580152463520000007777843029398806927_" transform="translate(193.954198, 12.500000)">
						<circle id="Background_00000096771329066019543900000015122534717753395638_" class="st1" cx="-151.8" cy="-76.9" r="4.2"/>
						<circle id="Indicator_00000146462110228945024080000012519768233734684575_" class="st5" cx="-151.8" cy="-76.9" r="1.8"/>
					</g>
				</g>
				<g id="Row_00000057830428490140193600000015625796494850421635_" transform="translate(0.000000, 196.000000)">
					<path id="Container_00000071551083942811889040000012318595285118752387_" class="st6" d="M-76.5-57.3H54.4
						c1.3,0,2.4,1.1,2.4,2.4v18.7c0,1.3-1.1,2.4-2.4,2.4H-76.5c-1.3,0-2.4-1.1-2.4-2.4v-18.7C-78.9-56.2-77.8-57.3-76.5-57.3z"/>
					<g id="Text-Stuff_00000000914867274710289540000016668778837557373612_" transform="translate(9.000000, 11.700000)">
						<path id="Label_00000000218765492034613600000003275446010511395740_" class="st1" d="M-80.8-62.3h97.2c1,0,1.8,0.8,1.8,1.8
							l0,0c0,1-0.8,1.8-1.8,1.8h-97.2c-1,0-1.8-0.8-1.8-1.8l0,0C-82.5-61.5-81.8-62.3-80.8-62.3z"/>
						<path id="Label_00000150797496027639188510000016617885396911648954_" class="st1" d="M-81.6-56.3h65.7c1,0,1.8,0.8,1.8,1.8
							l0,0c0,1-0.8,1.8-1.8,1.8h-65.7c-1,0-1.8-0.8-1.8-1.8l0,0C-83.4-55.5-82.6-56.3-81.6-56.3z"/>
					</g>
					<g id="Check_00000139997025691646824190000008811638987472140950_" transform="translate(193.954198, 12.500000)">
						<circle id="Background_00000091695159489973475740000006436195698126165438_" class="st1" cx="-151.8" cy="-58.3" r="4.2"/>
						<circle id="Indicator_00000164493385643339896780000013873248879270387840_" class="st5" cx="-151.8" cy="-58.3" r="1.8"/>
					</g>
				</g>
				<g id="Row_00000093862021833616416250000010809388942803544763_" transform="translate(0.000000, 149.000000)">
					<path id="Container_00000042014969426084378300000004636005581097241730_" class="st6" d="M-76.5-38.6H54.4
						c1.3,0,2.4,1.1,2.4,2.4v18.7c0,1.3-1.1,2.4-2.4,2.4H-76.5c-1.3,0-2.4-1.1-2.4-2.4v-18.7C-78.9-37.5-77.8-38.6-76.5-38.6z"/>
					<g id="Text-Stuff_00000039817074437964204650000011869941876740809378_" transform="translate(9.000000, 11.700000)">
						<path id="Label_00000018198352998851517630000009561859758568310666_" class="st1" d="M-80.8-43.7h97.2c1,0,1.8,0.8,1.8,1.8
							l0,0c0,1-0.8,1.8-1.8,1.8h-97.2c-1,0-1.8-0.8-1.8-1.8l0,0C-82.5-42.9-81.8-43.7-80.8-43.7z"/>
						<path id="Label_00000135693058595959652130000016823036966333117354_" class="st1" d="M-81.6-37.6h65.7c1,0,1.8,0.8,1.8,1.8
							l0,0c0,1-0.8,1.8-1.8,1.8h-65.7c-1,0-1.8-0.8-1.8-1.8l0,0C-83.4-36.8-82.6-37.6-81.6-37.6z"/>
					</g>
					<g id="Check_00000170256132814504030850000003180717920487275431_" transform="translate(193.954198, 12.500000)">
						<circle id="Background_00000181765847728007686740000012702872211218577807_" class="st1" cx="-151.8" cy="-39.6" r="4.2"/>
						<circle id="Indicator_00000010307193371164049770000002424269248731575171_" class="st5" cx="-151.8" cy="-39.6" r="1.8"/>
					</g>
				</g>
			</g>
		</g>
		<path id="Fill-1_00000043431746281648065970000015646135040882791584_" class="st2" d="M449.4,267.5c-2.4-1.6-5.5-2-8.4-2
			c-11.1,0-21.6,4.1-30.6,10.3c-4.9,3.4-9.4,7.7-13.3,12.1c-2.3,2.6-4.3,5.4-5.7,8.5c-1,2.1-1.6,4.3-2.1,6.5c-0.5,2.7-1,5.5-1.2,8.3
			c-0.1,1.1-0.7,6.9,1.1,7c0,0.1,0,0.3,0,0.4c-4,6.2-6.4,13.5-8.7,20.3c-2,6-3.7,12-4.9,18.2c-1.5,8.2-2.5,16.4-3,24.7
			c-0.1,1.8-0.2,3.6-0.2,5.3c-0.1,1.5-0.1,3-0.2,4.6c-0.1,1.7-0.4,3.7-0.1,5.4c0.2,1.5,1.5,1.3,1.6-0.2c0.1-1.8,0.1-3.5,0.1-5.3
			c0.1-2.4,0.2-4.7,0.3-7.1c0.8-16.3,3.8-32.4,9.4-47.9c2.2-6.2,4.8-12.2,8.1-17.9c2.9-5.1,6.4-10,10-14.6
			c3.5-4.4,7.1-8.8,11.3-12.6c3.5-3.1,7.3-5.7,11.2-8.2c5-3.1,9.9-6.2,15.3-8.6c2.8-1.3,5.6-2.4,8.5-3.6c0.5-0.2,1-0.4,1.5-0.7
			C451.2,269.7,450.7,268.4,449.4,267.5"/>
		<path id="Fill-20_00000071531257271812811730000017273592536499494805_" class="st0" d="M404.7,324.6c4.5,0,8.5,0.6,12.7,2.4
			c3.6,1.5,6.9,3.6,10,5.8c4.5,3.1,8,6.8,10.4,11.6c1.5,2.9,2.5,7,1.6,10.1c-1.2,3.7-4.4,6.8-8.6,6.1c-2.6-0.4-5-2.1-7-3.7
			c-2.4-1.9-4.3-4.3-5.8-6.9c-2.5-4.2-4-9-6.2-13.4c-1-2.1-2-4.2-3.3-6.2c-0.6-1-1.3-2-2.2-2.7c-0.5-0.4-2.6-1.1-1.8-1.9
			c-11.7,0.2-22,9.1-24.3,20.2c-0.2,1-0.4,2.1-0.5,3.1c-0.1,0.7-0.1,3.1-0.7,3.5c-1.3,0.9-0.8-1.9-0.7-2.3c0.1-1,0.3-2.1,0.5-3.1
			c0.9-5.7,3.4-11,7.6-15C391.3,327.6,397.8,324.6,404.7,324.6"/>
		<g id="Plant_00000134245718295450927420000004074994921865194148_" transform="translate(65.000000, 333.000000)">
			<path id="Fill-19_00000109025587732543624140000011212779492417765538_" class="st1" d="M14.8-22.5C26-3.6,39.1,14.7,47,35.3
				c-0.3-2.4-0.7-4.9-1-7.3c-2-12.9-4.5-25.6-7.1-38.4c-1.3-6.5-2.7-13-4.2-19.4c-0.8-3.5-1.5-7-2.3-10.4c-0.2-0.8-0.4-2.3-0.6-3.8
				c7.6,25.1,15,50.2,20.4,75.9c0.7,3.4,1.3,6.7,1.8,10.1c0.2-0.8,0.3-1.5,0.5-2.3c2.2-9.2,5.5-18.3,9.4-26.8
				c1.9-4.1,4-8.1,6.5-11.8c1.6-2.3,5.3-5.1,6.7-7.5c-7.8,14.4-10.7,32.4-15.2,48c-1.1,3.8-2.2,7.6-3.3,11.4
				c6.8-13.7,17.4-24.9,32.2-29.8C73,35,62.3,55.6,55,76.7c0,0.3-0.1,0.5-0.1,0.8c2.1-4,4.8-7.7,8.4-10.2c7.7-5.5,16.3-3.9,23.9,0.8
				c-5.9-3.8-16.6-0.3-21.5,3.5c-3.6,2.7-6.6,6.4-9.2,10c-0.6,0.9-1.5,1.9-2.4,2.9c-1.3,8.3-3.4,16.5-6.3,24.7
				c0.5-2.3,0.1-6.1,0.3-7.8c0-0.2,0-0.4,0-0.6c-0.4,1.8-0.9,3.6-1.3,5.3c0.8-3.3,1.3-6.8,1.6-10.3c0.1-1.5,0.2-3,0.3-4.5
				c0-2.9-0.1-5.7-0.3-8.6c-0.7-2.8-1.5-5.4-2.1-7.6c-2.3-7.9-5.8-15.5-10-22.5c-3.9-6.4-8.5-12.3-13.8-17.6
				c-2.9-2.8-5.9-5.6-8.9-8.3c-1.1-1-3-3.4-4.7-4.7c12.1,6.7,24.6,13.9,33.4,24.6c-1-4-2.2-7.9-3.3-11.7
				C32.8,15.3,25.2-4.9,14.8-22.5z"/>
			<path id="Base_00000033365539108141856760000007845772154925692859_" class="st7" d="M26.9,84.4c0,21.6,1.7,39.2,24.7,39.2
				S76.3,106,76.3,84.4"/>
		</g>
		<g id="Graph_00000000183828425615098110000004595159818816512699_" transform="translate(520.000000, 52.000000)">
			<path id="Value_00000062191985653697623470000007475485024020950711_" class="st1" d="M-170,86.9L-170,86.9c1,0,1.8,0.8,1.8,1.8
				v11.5c0,1-0.8,1.8-1.8,1.8l0,0c-1,0-1.8-0.8-1.8-1.8V88.7C-171.8,87.7-171,86.9-170,86.9z"/>
			<path id="Value_00000034068842789826036220000003922408868231377807_" class="st1" d="M-161.6,77.2L-161.6,77.2
				c1,0,1.8,0.8,1.8,1.8v21.1c0,1-0.8,1.8-1.8,1.8l0,0c-1,0-1.8-0.8-1.8-1.8V79C-163.4,78-162.6,77.2-161.6,77.2z"/>
			<path id="Value_00000067206911953337269230000010348998135231018423_" class="st1" d="M-153.1,72.4L-153.1,72.4
				c1,0,1.8,0.8,1.8,1.8v25.9c0,1-0.8,1.8-1.8,1.8l0,0c-1,0-1.8-0.8-1.8-1.8V74.2C-154.9,73.2-154.1,72.4-153.1,72.4z"/>
			<path id="Value_00000157310622846501156030000018038042007959001503_" class="st1" d="M-144.7,77.2L-144.7,77.2
				c1,0,1.8,0.8,1.8,1.8v21.1c0,1-0.8,1.8-1.8,1.8l0,0c-1,0-1.8-0.8-1.8-1.8V79C-146.5,78-145.7,77.2-144.7,77.2z"/>
			<path id="Value_00000003087203314628343810000008435648757035484315_" class="st7" d="M-136.2,67.6L-136.2,67.6
				c1,0,1.8,0.8,1.8,1.8v30.7c0,1-0.8,1.8-1.8,1.8l0,0c-1,0-1.8-0.8-1.8-1.8V69.4C-138,68.4-137.2,67.6-136.2,67.6z"/>
		</g>
		
			<g id="Pie-Chart_00000059989207267250522680000017039974661045201289_" transform="translate(48.000000, 358.000000) scale(-1, 1) translate(-48.000000, -358.000000) translate(28.000000, 338.000000)">
			<path id="Value_00000008842517585459583910000016995794893541696407_" class="st5" d="M16.4-33.8C16.4-40.5,11-46,4.4-46v12.2
				l8.2,8.9C14.9-27.1,16.4-30.3,16.4-33.8z"/>
			<path id="Value_00000016072093169231584780000016842106982779685300_" class="st8" d="M4.8-33.7H-7.4c0,3.1,1.3,6.1,3.3,8.2
				c2.2,2.3,5.4,3.8,8.9,3.8c3.2,0,6.1-1.3,8.3-3.3L4.8-33.7z"/>
			<path id="Value_00000183214643504379188360000002221779496675867039_" class="st7" d="M-7.7-33.7c0-6.6,5.4-12.1,12.1-12.1v12.1
				H-7.7z M10.5-46L5.7-35.1L16.5-40C15.4-42.8,13-44.9,10.5-46z"/>
		</g>
		<g id="Chart_00000076605170345887587420000003601336700356948889_" transform="translate(641.000000, 330.000000)">
			<path id="Value_00000125586509325942151630000012926237372209186489_" class="st5" d="M-197.1-20.4c-1.2,1.2-2.8,2-4.6,2
				c-3.5,0-6.4-2.8-6.4-6.3s2.8-6.3,6.4-6.3v-11.8c-10,0-18.1,8.1-18.1,18.1s8.2,18.1,18.1,18.1c5.2,0,10-2.2,13.2-5.7L-197.1-20.4z
				"/>
			<path id="Value_00000023982126477566308170000015452327165992509878_" class="st8" d="M-201.8-42.6v11.8c3.5,0,6.3,2.8,6.3,6.3
				h11.8C-183.7-34.4-191.8-42.6-201.8-42.6z"/>
			<path id="Value_00000141420814015368096970000014785178133497608841_" class="st7" d="M-195.8-24.5c0,2.1-1,3.9-2.5,5.1l7.4,9.4
				c4.3-3.4,7.1-8.6,7.1-14.5H-195.8z"/>
		</g>
		<g id="Chart_00000078755445082758934540000012167230032222785722_" transform="translate(459.000000, 63.000000)">
			<path id="Value_00000150065604900089045350000012074618880865876365_" class="st5" d="M-130.2,80.4c-0.9,0.9-2.2,1.5-3.6,1.5
				c-2.7,0-4.9-2.2-4.9-4.9s2.2-4.9,4.9-4.9v-9c-7.7,0-14,6.2-14,13.9c0,7.6,6.3,13.9,14,13.9c4,0,7.7-1.7,10.2-4.4L-130.2,80.4z"/>
			<path id="Value_00000101785498535430032960000007311231779444388225_" class="st8" d="M-133.7,63.5v9c2.7,0,4.9,2.2,4.9,4.9h9
				C-119.8,69.7-126.1,63.5-133.7,63.5z"/>
			<path id="Value_00000140697461623077750530000018129028169219925893_" class="st7" d="M-128.9,77.3c0,1.5-0.7,2.9-1.9,3.8
				l5.5,7.1c3.2-2.5,5.3-6.4,5.3-10.9H-128.9z"/>
		</g>
		<g id="Image_00000127728306928768824830000015515939247574376331_" transform="translate(76.000000, 57.000000)">
			<path id="Fill-35_00000147220334861075710300000018201788454390784149_" class="st7" d="M33.4,96.9C33.4,96.9,33.4,97,33.4,96.9
				C33.4,97,33.4,96.9,33.4,96.9"/>
			<path id="Fill-37_00000045599434239341283510000002117641219380732064_" class="st7" d="M33.4,96.9C33.4,97,33.4,97,33.4,96.9
				C33.4,96.9,33.4,96.9,33.4,96.9"/>
			<path id="Fill-39_00000041254018979906578580000000677577510887137183_" class="st7" d="M33.4,96.8
				C33.4,96.9,33.4,96.9,33.4,96.8C33.4,96.9,33.4,96.9,33.4,96.8C33.3,97.2,33.3,97,33.4,96.8"/>
			<path id="Fill-41_00000080904567512435040870000004703960854162972052_" class="st7" d="M33.4,96.9
				C33.4,96.9,33.4,96.9,33.4,96.9C33.3,97,33.4,96.9,33.4,96.9"/>
			<polygon id="Fill-43_00000042715616304850233820000007225790184085863560_" class="st7" points="33.5,96.9 33.5,96.9 33.5,96.9 
							"/>
			<path id="Fill-45_00000173846990549871774410000010741634593685996702_" class="st7" d="M33.4,97C33.4,96.9,33.4,96.9,33.4,97
				C33.4,96.9,33.4,96.9,33.4,97"/>
			<path id="Fill-47_00000097470003741975531580000007158256105214717623_" class="st7" d="M33.4,97C33.3,97,33.4,96.9,33.4,97"/>
			<path id="Fill-49_00000139293129469040615250000011721576203371910068_" class="st7" d="M33.4,97L33.4,97
				C33.4,96.9,33.4,97,33.4,97"/>
			<path id="Photo-Background_00000129900920115525830900000008451854035277505972_" class="st1" d="M6.9,65.8h52.4
				c1.3,0,2.4,1.1,2.4,2.4v33.2c0,1.3-1.1,2.4-2.4,2.4H6.9c-1.3,0-2.4-1.1-2.4-2.4V68.3C4.5,66.9,5.6,65.8,6.9,65.8z"/>
			
				<g id="icons8-night_landscape_00000024721916013605282210000009382415417294164906_" transform="translate(8.000000, 18.000000)">
				<polygon id="Mountains_00000021808695976358241020000017412291965455942288_" class="st8" points="18.1,58.7 1.2,85.8 35,85.8 
									"/>
				<polygon id="Mountains_00000102520535526500305610000001523133139774927800_" class="st7" points="34.7,65.9 19.9,85.8 
					49.5,85.8 				"/>
			</g>
			<circle id="Sun_00000063627453350072957800000009532595639405476738_" class="st6" cx="49" cy="78.3" r="5.4"/>
		</g>
		
			<g id="Image_00000086692496638199955200000000619928700623538304_" transform="translate(601.000000, 506.000000) scale(-1, 1) translate(-601.000000, -506.000000) translate(530.000000, 459.000000)">
			<path id="Fill-35_00000065756676650418813020000010452880979366596241_" class="st7" d="M275.1-47.6
				C275.1-47.6,275.1-47.6,275.1-47.6C275.1-47.6,275.1-47.6,275.1-47.6"/>
			<path id="Fill-37_00000034808520118572100480000017325706308751569832_" class="st7" d="M275.1-47.6
				C275.1-47.6,275.1-47.6,275.1-47.6C275.1-47.6,275.1-47.6,275.1-47.6"/>
			<path id="Fill-39_00000087398804956534196790000006153713522558130055_" class="st7" d="M275.1-47.7
				C275.1-47.7,275.1-47.7,275.1-47.7C275.1-47.7,275.1-47.7,275.1-47.7C275-47.4,275.1-47.6,275.1-47.7"/>
			<path id="Fill-41_00000163044191503295737730000002135370734955795355_" class="st7" d="M275.1-47.7
				C275.1-47.6,275.1-47.6,275.1-47.7C275-47.6,275.1-47.7,275.1-47.7"/>
			<polygon id="Fill-43_00000144311534976109462230000009509475647384403625_" class="st7" points="275,-47.6 275,-47.6 275,-47.6 
							"/>
			<path id="Fill-45_00000129921455734998813640000000249255089421266365_" class="st7" d="M275.1-47.6
				C275.1-47.6,275.1-47.6,275.1-47.6C275.1-47.6,275.1-47.6,275.1-47.6"/>
			<path id="Fill-47_00000168836908040560585340000005927443675156953023_" class="st7" d="M275.1-47.6
				C275.1-47.6,275.1-47.7,275.1-47.6"/>
			<path id="Fill-49_00000065041517429635179760000012994731797099342216_" class="st7" d="M275.1-47.6L275.1-47.6
				C275.1-47.6,275.1-47.6,275.1-47.6"/>
			<path id="Photo-Background_00000091004240343264126060000010552169156912234138_" class="st1" d="M234.6-93.8h80.8
				c1.3,0,2.4,1.1,2.4,2.4v51.8c0,1.3-1.1,2.4-2.4,2.4h-80.8c-1.3,0-2.4-1.1-2.4-2.4v-51.8C232.2-92.7,233.2-93.8,234.6-93.8z"/>
			
				<g id="icons8-night_landscape_00000176011330343562303800000016637514668837954713_" transform="translate(11.000000, 27.000000)">
				<polygon id="Mountains_00000081612299294989760250000003226981961096785284_" class="st8" points="253.1,-104.5 228.3,-64.1 
					277.8,-64.1 				"/>
				<polygon id="Mountains_00000029749407531689568430000010166680085036923291_" class="st7" points="278.6,-93.7 256.7,-64.1 
					300.5,-64.1 				"/>
			</g>
			<circle id="Sun_00000076570821245719760250000014147993534826355585_" class="st6" cx="298.9" cy="-75.1" r="8.1"/>
		</g>
	</g>
</g>
</svg>
