<?xml version="1.0" encoding="utf-8"?>
<!-- Generator: Adobe Illustrator 26.0.3, SVG Export Plug-In . SVG Version: 6.00 Build 0)  -->
<svg version="1.1" id="edits" xmlns="http://www.w3.org/2000/svg" xmlns:xlink="http://www.w3.org/1999/xlink" x="0px" y="0px"
	 viewBox="0 0 200 90" style="enable-background:new 0 0 200 90;" xml:space="preserve">
<style type="text/css">
	.st0{fill:url(#SVGID_1_);}
	.st1{fill:url(#SVGID_00000139294656934291759190000004474446770141125018_);}
	.st2{fill:url(#SVGID_00000179625617832407404360000006469719929259676574_);}
	.st3{fill:url(#SVGID_00000112616715763441348430000004755609590112942216_);}
	.st4{fill:url(#SVGID_00000044139358587573741440000014273346573274523014_);}
	.st5{fill:url(#SVGID_00000173880023064091761500000004182193186355436180_);}
	.st6{fill:url(#SVGID_00000010294744778318494410000000981552403656304547_);}
	.st7{fill:url(#SVGID_00000016763865070701656750000010623016085495741092_);}
</style>
<linearGradient id="SVGID_1_" gradientUnits="userSpaceOnUse" x1="22.5481" y1="67.8936" x2="22.5481" y2="15.3193">
	<stop  offset="2.587860e-07" style="stop-color:#700ADA"/>
	<stop  offset="1" style="stop-color:#8F26FF"/>
</linearGradient>
<path class="st0" d="M12.6,15.3h12.7c2.4,12.7,4.7,26.1,7.1,40v12.6h-7.3L12.6,15.3z"/>
<linearGradient id="SVGID_00000011020025771062389060000010522073802443036594_" gradientUnits="userSpaceOnUse" x1="39.3188" y1="67.8936" x2="39.3188" y2="15.3193">
	<stop  offset="2.587860e-07" style="stop-color:#700ADA"/>
	<stop  offset="1" style="stop-color:#8F26FF"/>
</linearGradient>
<path style="fill:url(#SVGID_00000011020025771062389060000010522073802443036594_);" d="M40.5,15.3c-3,14.1-5.7,27.6-7.9,40h-0.2
	v12.6h5.7c3.4-15,6.7-29.4,8-38.8V15.3H40.5z"/>
<linearGradient id="SVGID_00000023239256439885116530000007809451794524591030_" gradientUnits="userSpaceOnUse" x1="53.1643" y1="67.8936" x2="53.1643" y2="15.3193">
	<stop  offset="2.587860e-07" style="stop-color:#700ADA"/>
	<stop  offset="1" style="stop-color:#8F26FF"/>
</linearGradient>
<path style="fill:url(#SVGID_00000023239256439885116530000007809451794524591030_);" d="M46.2,15.3h6.9c3,15.5,6.1,31.7,7,39.8
	v12.8h-6.9c-3.1-15.4-6.7-33.4-6.9-38.8h-0.2V15.3z"/>
<linearGradient id="SVGID_00000124869475439523748030000017533058786086644146_" gradientUnits="userSpaceOnUse" x1="69.9348" y1="67.8936" x2="69.9348" y2="15.3193">
	<stop  offset="2.587860e-07" style="stop-color:#700ADA"/>
	<stop  offset="1" style="stop-color:#8F26FF"/>
</linearGradient>
<path style="fill:url(#SVGID_00000124869475439523748030000017533058786086644146_);" d="M60.3,55.1h-0.2v12.8h6l13.6-52.6H67.6
	C65,27.3,62.4,40.8,60.3,55.1z"/>
<linearGradient id="SVGID_00000070812335581293293870000008514085661406068640_" gradientUnits="userSpaceOnUse" x1="89.2424" y1="25.473" x2="89.2424" y2="12.473">
	<stop  offset="2.587860e-07" style="stop-color:#700ADA"/>
	<stop  offset="1" style="stop-color:#8F26FF"/>
</linearGradient>
<circle style="fill:url(#SVGID_00000070812335581293293870000008514085661406068640_);" cx="89.2" cy="19" r="6.5"/>
<linearGradient id="SVGID_00000124861601886713397640000005558814488429403028_" gradientUnits="userSpaceOnUse" x1="89.3154" y1="67.8936" x2="89.3154" y2="29.75">
	<stop  offset="2.587860e-07" style="stop-color:#700ADA"/>
	<stop  offset="1" style="stop-color:#8F26FF"/>
</linearGradient>
<rect x="83.4" y="29.8" style="fill:url(#SVGID_00000124861601886713397640000005558814488429403028_);" width="11.9" height="38.1"/>
<linearGradient id="SVGID_00000114796610097204720220000009468831937496302728_" gradientUnits="userSpaceOnUse" x1="102.7586" y1="41.5519" x2="144.3838" y2="41.5519">
	<stop  offset="2.587860e-07" style="stop-color:#700ADA"/>
	<stop  offset="1" style="stop-color:#8F26FF"/>
</linearGradient>
<path style="fill:url(#SVGID_00000114796610097204720220000009468831937496302728_);" d="M142,26.2l2.4-9.4
	c-5.4-2.7-17.4-3.5-25.4,0c-4.9,1.9-9.4,5.2-12.9,11.3c-3.8,6.7-4.2,16.8-2.1,23.4c3.2,9.9,9.9,14.5,18.6,16.4
	c7.9,1.5,15.3,0.7,21.1-1.5l-1.8-9.3c-7.6,2.7-14.8,2.8-21.4-2c-6.1-5.6-6.1-12.6-4.5-20c1.6-5,4.6-8,9.3-9.7
	c4.1-1.2,7.9-1.2,11.5-0.6C138.8,25.1,140.5,25.6,142,26.2z"/>
<linearGradient id="SVGID_00000016066751946178669410000007788267234255704494_" gradientUnits="userSpaceOnUse" x1="149.5293" y1="41.6138" x2="185.5954" y2="41.6138">
	<stop  offset="2.587860e-07" style="stop-color:#700ADA"/>
	<stop  offset="1" style="stop-color:#8F26FF"/>
</linearGradient>
<path style="fill:url(#SVGID_00000016066751946178669410000007788267234255704494_);" d="M180.9,26.7l2.7-9.6
	c-5.8-2.3-11.8-3.1-18.1-2.3c-3.4,0.5-6.6,1.6-9.7,4c-3.6,2.8-5.6,6.8-5.6,12.1c0.1,2.9,1,5.4,2.7,7.6c1.7,2.1,3.7,3.7,5.8,4.8
	c1.6,0.9,3.4,1.7,5.4,2.4c5.6,1.8,9.7,4.1,9.3,7.9c-0.5,4.2-3.8,5.5-8.5,5.4c-3.9,0.2-8.3-1.1-13.1-3.3l-2.4,9.8
	c2.6,1.3,5.7,2.2,9.1,2.7c2.8,0.5,5.7,0.6,8.7,0.3c3.4-0.2,6.6-0.9,9.3-2.3c3.8-1.9,6.5-4.5,7.9-8.1c1.6-3.3,1.6-10.4-1.6-14.3
	c-1.4-1.8-3.4-3.6-6.6-5.2c-1.3-0.7-11.2-4.1-12.6-6c-2.2-2-2-4.7,0-6.6c1.5-1.2,3.9-1.9,7.5-1.7c1.8,0,3.6,0.3,5.4,0.8
	C178.4,25.7,179.8,26.2,180.9,26.7z"/>
</svg>
