<?xml version="1.0" encoding="utf-8"?>
<!-- Generator: Adobe Illustrator 26.0.2, SVG Export Plug-In . SVG Version: 6.00 Build 0)  -->
<svg version="1.1" id="Layer_1" xmlns="http://www.w3.org/2000/svg" xmlns:xlink="http://www.w3.org/1999/xlink" x="0px" y="0px"
	 viewBox="0 0 136 104" style="enable-background:new 0 0 136 104;" xml:space="preserve">
<style type="text/css">
	.st0{fill-rule:evenodd;clip-rule:evenodd;fill:#59331D;}
	.st1{fill-rule:evenodd;clip-rule:evenodd;fill:#D49780;}
</style>
<g id="Head_x2F_Front_x2F_Long">
	<path id="Hair-Back" class="st0" d="M95,32.9c3.6,13.2,8.2,42.8,3.4,47.5H68.3c0-0.1,0-0.1,0-0.2C57.1,79,48.5,69.4,48.5,58V36.3
		C48.5,24,58.5,14,70.8,14h2.1C84.1,14,93.3,22.1,95,32.9z"/>
	<g id="Head" transform="translate(54.000000, 31.000000)">
		<path class="st1" d="M6.2,22.9c-4.8-5.6-8-12.5-7.5-20.2c1.5-22.2,32.4-17.3,38.5-6.1s5.3,39.6-2.5,41.7
			c-3.1,0.8-9.7-1.2-16.5-5.2L22.4,63H-2.4L6.2,22.9z"/>
	</g>
	<path id="Hair-Front" class="st0" d="M66.9,50.2c1.2,12.3,0.7,26.3-2.7,29.7H34C32.4,50.8,48.6,62,48.6,34.6c1-1,2-2,2.9-2.8V31
		c5.2-10.8,11.8-16.1,19.8-16.1c12,0,15.8,5.6,19,10.4C88,33.6,78.6,34.9,70.2,40c-1-0.8-2.3-1.2-3.6-1.2c-3.1,0-5.7,2.6-5.7,5.7
		c0,3.1,2.6,5.7,5.7,5.7C66.7,50.2,66.8,50.2,66.9,50.2z"/>
</g>
</svg>
