<?xml version="1.0" encoding="utf-8"?>
<!-- Generator: Adobe Illustrator 26.0.2, SVG Export Plug-In . SVG Version: 6.00 Build 0)  -->
<svg version="1.1" id="Layer_1" xmlns="http://www.w3.org/2000/svg" xmlns:xlink="http://www.w3.org/1999/xlink" x="0px" y="0px"
	 viewBox="0 0 500 500" style="enable-background:new 0 0 500 500;" xml:space="preserve">
<style type="text/css">
	.st0{fill-rule:evenodd;clip-rule:evenodd;fill:#B28B67;}
	.st1{fill-rule:evenodd;clip-rule:evenodd;fill:#191847;}
	.st2{fill-rule:evenodd;clip-rule:evenodd;fill:#C5CFD6;}
	.st3{fill-rule:evenodd;clip-rule:evenodd;fill-opacity:0.1;}
	.st4{fill-rule:evenodd;clip-rule:evenodd;fill:#3C3440;}
	.st5{fill-rule:evenodd;clip-rule:evenodd;fill:#E4E4E4;}
	.st6{fill-rule:evenodd;clip-rule:evenodd;fill:#383740;}
	.st7{fill-rule:evenodd;clip-rule:evenodd;fill:#997659;}
	.st8{fill-rule:evenodd;clip-rule:evenodd;fill:#D300D9;}
	.st9{fill-rule:evenodd;clip-rule:evenodd;fill:#E600D9;}
</style>
<g>
	<desc>Created with Sketch.</desc>
	<g id="humaaans_x2F_sitting-2_00000053547273400778205760000006487592032399437739_">
		
			<g id="A-Human_x2F_Sitting_00000167378787457113452090000011914400067832990883_" transform="translate(190.000000, 200.500000) scale(-1, 1) translate(-190.000000, -200.500000) translate(40.000000, 24.000000)">
			
				<g id="Head_x2F_Front_x2F_Rad_00000183250276484342053770000008595638183674846379_" transform="translate(82.000000, 0.000000)">
				<g id="Head_00000136379912782354650380000016317524458782621110_" transform="translate(54.000000, 31.000000)">
					<path class="st0" d="M-63.3,86.5c-4.6-5.4-7.7-12-7.2-19.5c1.5-21.4,31.3-16.7,37.1-5.9s5.1,38.2-2.4,40.1
						c-3,0.8-9.3-1.1-15.8-5l4.1,28.8h-24L-63.3,86.5z"/>
				</g>
				<path id="hair_00000018936731891918864240000007372808536184249532_" class="st1" d="M-27,91.4c-0.8-0.8-1.2-1.9-1.6-2.9
					c-0.4-1.1-0.7-2.2-1-3.3c-0.5-2.2-0.5-4.8,1.1-6.6c1.3-1.4,3.2-2,5-2.2c1.2-0.1,2.4,0.1,3.5,0.4c1.1,0.4,2.1,1.1,3.2,1.6
					c0-2.4,0.5-5,1.7-7c1.2-2,3.1-3.1,5.2-3.4c2.2-0.3,4.4,0.2,6.4,1.3c0.5,0.3,1,0.5,1.5,0.9c0.4,0.3,0.8,0.6,1.3,0.7
					c0.5,0.1,0.8-0.2,1.1-0.6c0.4-0.4,0.8-0.8,1.3-1.2c2.1-1.5,4.8-2.1,7.2-1.2C9.9,68.3,11,69,11.7,70c0.7,0.9,1.1,2.3,2.1,2.9
					c0.4,0.3,0.7-0.1,1-0.3c0.5-0.4,1-0.8,1.6-1.2c0.8-0.5,1.6-0.9,2.5-1.1c1.3-0.3,3.1-0.2,3.4,1.5c0.1,0.6,0,1.3,0,1.9
					c-0.1,0.9-0.1,1.8-0.2,2.6c-0.1,0.7-0.1,1.3-0.3,2c-0.1,0.3-0.3,1-0.1,1.3c0.2,0.4,1,0.2,1.4,0.2c0.7,0,1.5,0.2,2.1,0.5
					c0.5,0.2,1.1,0.6,1.3,1.2c0.1,0.4,0.1,0.7,0,1.1c-0.1,0.5,0,0.7,0.1,1.1c1-0.5,4.3-1.5,4.8,0.2c0.1,0.6-0.2,1.2-0.4,1.7
					c-0.4,0.9-1,1.6-1.6,2.4c-1.2,1.6-2.6,2.9-4.2,4.1c1.8,0.8,2.3,3.2,0.7,4.6c-0.7,0.6-1.6,0.8-2.5,0.7c-0.3,0-0.8-0.1-1-0.1
					c-0.1,0-0.3,0.1-0.5,0.2c-1.2,0.1-2.6-0.2-3.8-0.5c-2.1-0.5-4.2-1.5-5.8-3.1c-0.4-0.4-0.8-0.6-1.4-0.6c-0.5,0-1,0.1-1.5,0.2
					c-1.3,0-2.5-0.6-3.8-1c-0.1,1.7-0.6,3.5-1.2,5c-0.6,1.2-1.7,1.4-2.9,1.5c-3.6,0.3-7.3,0-11,0c3.5,0.8,7.2,1.1,10.7,2.1
					c1.6,0.4,0.4,1.5-0.3,2.2c-1.1,1.2-1.9,2.7-2.5,4.3c-1.7-2.3-4.8-3.7-7.5-3c-3,0.8-5.1,4.8-3.2,7.7c1.1,1.7,3.1,2.3,4.8,3.1
					c-1.3,1.4-1.6,3.4-2.4,5c-0.4,0.8-0.9,1.8-1.8,2.1c-0.3,0.1-0.7,0.1-0.9,0.4c-0.3,0.3-0.4,0.7-0.8,1c-1.6,1.1-4.1,1-5.5-0.4
					c-1.3-1.3-0.9-3.4,0.1-4.7c-1.7-0.7-4.8-1.6-4.1-4.3c-3.7-0.2-12.6-6.2-7.7-10.6c-2.7-1.5-5.2-5.3-3.5-8.6
					C-32.7,92.6-29.6,91.5-27,91.4"/>
			</g>
			
				<g id="Bottom_x2F_Sitting_x2F_Skinny-Jeans-1_00000005955336857186056010000003624437197691476891_" transform="translate(0.000000, 187.000000)">
				
					<g id="Objects_x2F_Seat_x2F_Cube_00000005238660197682962540000001615263060317256107_" transform="translate(10.000000, 42.000000)">
					<g id="Seat_00000179623675627285999620000001685839413891955346_" transform="translate(55.000000, 0.000000)">
						<polygon id="Seat-Stuff_00000070816293542038722030000013313746441985037480_" class="st2" points="-44,52 33.3,52 43.4,176 
							-71.6,176 						"/>
						<polygon id="Seat-Stuff_00000119819291902175856760000015349008187597008812_" class="st3" points="-44,52 -20.2,52 -6,176 
							-71.6,176 						"/>
					</g>
				</g>
				<path id="Skin_00000147214236848126815830000012155114574181506965_" class="st0" d="M186.4,73.2c8.2-4.9,22.1,1.4,22,8.5
					c0,21.2-19.3,120.9-20.4,127.2c-1,6.3-11.8,8-12.4,0c-1-12.7-2.9-56.4-1-76.7c0.8-8.4,1.6-16.3,2.4-23.4
					c-10.1,18.3-25.8,44.5-47,78.6l-11.5-5.3c9-29.8,16.5-50.8,22.2-63.1c9.9-21,19.2-39,23.1-45.4C170,63.7,180.7,67.2,186.4,73.2z
					"/>
				<path id="LegLower_00000098207497627572326250000015265984011700021937_" class="st4" d="M119.3,165.6L158.8,72
					c9.5-15.2,36,3.1,32.8,11.9c-7.3,20.1-44.6,85-46.8,91L119.3,165.6z"/>
				
					<g id="Accessories_x2F_Shoe_x2F_Flat-Sneaker_00000121981646010358281220000005662892229935118745_" transform="translate(215.500000, 133.000000) rotate(30.000000) translate(-215.500000, -133.000000) translate(185.000000, 113.000000)">
					<path id="shoe_00000181783014237964928190000007575270121781551753_" class="st5" d="M-33.1,106.6c-1.1,3-1.7,5.2-1.7,6.7
						c0,1.8,0.3,4.4,0.9,7.9c2.1,0,20.9,0,56.4,0c1.5-4.8,0.6-7.5-2.5-7.8c-3.2-0.4-5.8-0.7-7.9-1l-26.2-11.7
						c-0.5-0.2-1.1,0-1.3,0.5c0,0,0,0,0,0l-1.7,4.1c-2.9,1.4-5.3,2-7.1,2c-1.5,0-3.5-0.6-6.2-1.8l0,0c-1-0.5-2.2,0-2.7,1
						C-33.1,106.6-33.1,106.6-33.1,106.6z"/>
				</g>
				
					<g id="Accessories_x2F_Shoe_x2F_Flat-Sneaker_00000018227787546381898320000017178662525561332157_" transform="translate(242.000000, 126.000000)">
					<path id="shoe_00000142158838780003440260000004940386335603481517_" class="st5" d="M-68.9,77.4c-1.1,3-1.7,5.2-1.7,6.7
						c0,1.8,0.3,4.4,0.9,7.9c2.1,0,20.9,0,56.4,0c1.5-4.8,0.6-7.5-2.5-7.8c-3.2-0.4-5.8-0.7-7.9-1l-26.2-11.7
						c-0.5-0.2-1.1,0-1.3,0.5c0,0,0,0,0,0l-1.7,4.1c-2.9,1.4-5.3,2-7.1,2c-1.5,0-3.5-0.6-6.2-1.8l0,0c-1-0.5-2.2,0-2.7,1
						C-68.9,77.3-68.9,77.4-68.9,77.4z"/>
				</g>
				<path id="Leg-and-Butt_00000049902622617986987530000003170263319225577867_" class="st6" d="M211.3,88.5
					c0,26.6-12.6,88.7-12.6,94.5l-27.2,0c4-55.4,5.4-83.4,4.2-84c-1.7-0.9-71.1,6.9-92,6.9c-30,0-42.4-18.9-43.4-54h59.5
					c12.1,1.3,75.3,14,98.7,18.4C208.5,72.3,211.3,81.2,211.3,88.5z"/>
			</g>
			
				<g id="Body_x2F_Pointing-Forward_00000049221862424042405000000013498019677724087186_" transform="translate(22.000000, 82.000000)">
				<path id="Skin_00000082343761347540924360000004163722597501748158_" class="st7" d="M87,95.2l34.7-19
					c5.8-6.9,11.5-12.2,17.1-16c1.7-0.7,4.7-1.1,1.9,3.8c-2.8,5-5.5,10.3-4.1,11.9c1.4,1.5,5-0.6,6.7,1.9c1.1,1.7-4.9,4.4-18.2,8
					l-25.2,23.1L87,95.2z M141.4,111.2l15.2-8.4c2.1-8.1,4.7-12.2,7.7-12.3c2.3-1.1-1.7,9.2,2.6,8.3c4.3-0.9,14.9-8.8,16.7-7.2
					c2.7,2.4,0.3,9.6-2.5,13.2c-5.3,6.7-9.7,9.1-20.5,12.1c-5.7,1.6-11.8,4.7-18.4,9.5L141.4,111.2z"/>
				<path id="Sleeve_00000023252240014968433380000003824456079570102687_" class="st8" d="M70.1,90.9c12.2-0.1,28.4-2.7,45.7-13.7
					l6.8,15.1c-11.9,11.8-28.7,21.6-43.4,21.2C67.7,113.2,61.7,99.3,70.1,90.9z"/>
				<path id="Clothes_00000142160691260967582070000015212301574487443101_" class="st9" d="M86.5,114.8
					c12.9,3.2,34.6-0.6,64.9-11.4c7.5,15.6,11,26.7,10.5,33.3c-26.1,13.6-48.4,19.7-66.8,20.1c0.6,10.9-0.7,21.3-5.2,30.8
					c-9.2,19.5-62.9,1.4-81,5c-11.3-36.8,10.6-51.7,10.6-75.2C19.5,91.6,40.2,52,43.2,52h27.7C72.5,71.7,80.2,93.3,86.5,114.8z"/>
			</g>
		</g>
	</g>
</g>
</svg>
