<?xml version="1.0" encoding="utf-8"?>
<!-- Generator: Adobe Illustrator 26.0.1, SVG Export Plug-In . SVG Version: 6.00 Build 0)  -->
<svg version="1.1" xmlns="http://www.w3.org/2000/svg" xmlns:xlink="http://www.w3.org/1999/xlink" x="0px" y="0px"
	 viewBox="0 0 640 480" style="enable-background:new 0 0 640 480;" xml:space="preserve">
<style type="text/css">
	.st0{fill-rule:evenodd;clip-rule:evenodd;fill:#89C5CC;}
	.st1{fill-rule:evenodd;clip-rule:evenodd;fill:#DDE3E9;}
	.st2{fill-rule:evenodd;clip-rule:evenodd;fill:#C1DEE2;}
	.st3{fill-rule:evenodd;clip-rule:evenodd;fill:#69A1AC;}
	.st4{opacity:0.6;}
	.st5{fill-rule:evenodd;clip-rule:evenodd;fill:#F2F2F2;}
	.st6{fill-rule:evenodd;clip-rule:evenodd;fill:#FFFFFF;}
	.st7{fill-rule:evenodd;clip-rule:evenodd;fill:#C5CFD6;}
	.st8{fill-rule:evenodd;clip-rule:evenodd;fill:#AFB9C5;}
	.st9{fill-rule:evenodd;clip-rule:evenodd;fill:#D4A181;}
	.st10{fill-rule:evenodd;clip-rule:evenodd;fill:#191847;}
	.st11{fill-rule:evenodd;clip-rule:evenodd;fill:#BA8B72;}
	.st12{fill-rule:evenodd;clip-rule:evenodd;}
	.st13{fill-rule:evenodd;clip-rule:evenodd;fill:#040F0F;}
	.st14{fill-rule:evenodd;clip-rule:evenodd;fill:#2D0459;}
	.st15{fill-rule:evenodd;clip-rule:evenodd;fill:#B28B67;}
	.st16{fill-rule:evenodd;clip-rule:evenodd;fill:#1F28CF;}
	.st17{fill-rule:evenodd;clip-rule:evenodd;fill:#2B44FF;}
	.st18{fill-rule:evenodd;clip-rule:evenodd;fill:#E4E4E4;}
	.st19{fill-rule:evenodd;clip-rule:evenodd;fill:#2F3676;}
	.st20{fill-rule:evenodd;clip-rule:evenodd;fill:#2026A2;}
</style>
<g id="bg">
	<g>
		<desc>Created with Sketch.</desc>
		<g id="Scene_x2F_Wireframe_00000004547697891409660510000014013522413330099884_">
			<path id="Twisted-Leaf_00000153676710744001462370000015341735371138457013_" class="st0" d="M579.78,137.72
				c-0.41-0.3-1.38-0.4-1.83-0.49c-1.88-0.37-3.81-0.53-5.73-0.53c-5.9,0.01-11.9,0.59-17.71,1.59c-3.69,0.64-8.14,2.78-11.81,1.62
				c-6.39-2.03-12.84-1.93-18.9,0.97c-5.54,2.65-9.75,7.67-12.2,13.1c-0.37,0.82-1.87,3.84-2.3,5.87c-0.18,0.42-0.36,0.83-0.51,1.26
				c-0.45,1.21-0.85,2.43-1.22,3.67c-0.16,0.52-0.56,1.68-0.08,1.91c-0.76,1.4-1.43,2.85-1.99,4.34c-1.63,4.34-3.41,9.09-3.99,13.69
				c-0.21,1.7-0.22,3.41-0.02,5.12c0.1,0.84,0.06,2.54,0.63,3.18c1.21,1.36,1.84-0.54,1.7-1.45c-1.04-6.91,0.97-13.4,3.36-19.9
				c1.54-4.2,4.08-8.04,6.93-11.52c2.3-2.82,4.77-5.04,7.92-6.9c3.86-2.28,7.98-4.13,12.07-5.98c2.69-1.22,5.38-2.4,8.14-3.45
				c0.61-0.23,1.58-0.83,2.26-0.84c1.44-0.01,3.48,1.06,4.87,1.45c4.58,1.3,9.21,2.97,13.94,3.63c3.03,0.43,5.88-0.05,8.71-1.06
				c0.29-0.1,0.78-0.37,1.37-0.75c2.11-0.81,4.1-1.83,5.83-3.3c1-0.85,1.91-1.94,2.73-2.95c0.25-0.3,0.36-0.64,0.36-0.97
				c0.19-0.1,0.31-0.21,0.34-0.35C582.87,137.68,580.99,137.66,579.78,137.72"/>
			<path id="Fill-16_00000164507751061284853070000013459078185375388082_" class="st1" d="M100.24,219.99
				c-1.16,0.94-2.29,1.9-3.4,2.89c-0.84,0.76-2.34,1.67-2.64,2.82c-0.32,1.2,0.68,2.32,1.47,3.04c4.16,3.82,8.84,6.41,14.6,6.84
				c8.87,0.66,16.59-1.6,24.28-6.06c5.41-3.13,8.99-7.76,9.77-14.01c6.44,2.68,12.66,6.36,17.95,10.89
				c2.61,2.23,4.86,4.71,6.94,7.45c1.33,1.76,2.62,3.54,3.82,5.4c0.52,0.81,1.05,2.23,1.91,2.7c1.01,0.54,2.22-0.31,2.17-1.43
				c-0.04-0.93-1.05-2.01-1.52-2.78c-0.78-1.27-1.58-2.52-2.41-3.75c-1.35-1.99-2.75-3.96-4.27-5.82c-3.42-4.19-7.78-7.65-12.3-10.6
				c-8.67-5.66-18.18-9.23-28.72-9.53c-6.48-0.19-11.94,2.03-17.48,5.34C106.93,215.42,103.37,217.45,100.24,219.99"/>
			<path id="Leaf_00000085946086808230624860000012846747331725779336_" class="st2" d="M184.34,192.6
				c-6.76-6.96-13.54-13.83-21.09-19.96c-4.45-3.61-9.14-6.89-13.73-10.32c0.53,0.46,1.05,0.94,1.56,1.43
				c-1.43-0.97-3.31-1.52-4.83-2.42c-1.69-1-3.32-2.15-4.9-3.31c-3.1-2.26-6.16-4.56-9.35-6.71c-3.55-2.39-7.23-4.59-10.85-6.89
				c-3.07-1.95-6.17-4.08-9.45-5.68c-1.79-0.87-3.58-1.9-5.38-2.8c-0.6-0.3-6.7-4.15-6.68-4.16c0.34-0.25,3.41,1.19,3.88,1.38
				c1.39,0.57,2.71,1.24,4.04,1.92c-0.73-1.44-1.31-2.96-1.63-4.55c-0.1-0.49-0.88-4.08-0.48-4.38c0.2-0.15,2.14,6.26,2.24,6.88
				c0.08,0.5,0.07,1.22,0.23,1.7c0.26,0.77,0.25,0.53,0.83,0.97c1.07,0.79,2.49,1.29,3.64,1.95c0.62,0.35,2.56,1.73,3.72,2.12
				c3.52,1.71,7.09,4.34,10.43,6.52c-0.88-1.65-1.55-3.37-2.03-5.18c-0.12-0.43-1.37-4.28-1.06-4.51c0.34-0.26,2.72,5.62,2.86,6.18
				c0.26,1.03,0.32,2.18,0.64,3.19c0.36,1.1,1.48,1.5,2.5,2.14c3.73,2.37,7.33,4.88,10.87,7.52c3.86-6.87-0.59-15.16-4.34-20.92
				c-2.7-4.15-6.35-7.71-10.19-10.82c-5.13-4.15-11-7.46-16.87-10.49c-6.83-3.53-14.22-5.72-21.89-6.73
				c-4.02-0.53-8.12-0.51-12.18-0.34c-1.98,0.08-3.88,0.35-5.78,0.99c-0.86,0.29-1.68,0.66-2.49,1.07
				c-0.61,0.31-2.09,0.64-2.45,1.11c-2.9,3.77-4.38,7.53-4.15,12.27c0.21,4.49,1.63,8.98,3.55,12.98c2.14,4.46,4.9,8.5,8.5,11.9
				c2.75,2.59,5.82,4.84,8.88,7.07c10.86,7.91,24.63,14.8,38.69,13.03c4.55-0.57,8.88-2.16,12.93-4.33c0.95-0.51,1.9-1.03,2.8-1.63
				c0.61-0.41,2.23-2.23,2.84-2.3c0.84-0.09,2.64,1.61,3.42,2.13c5.96,3.94,11.77,8.09,17.46,12.41c6.05,4.6,11.8,9.5,17.39,14.64
				c2.38,2.19,4.74,4.38,7.04,6.64c0.54,0.53,1.85,2.46,2.82,2.55c0.62,0.06,1.03-0.47,0.94-1.04
				C187.12,194.8,185.03,193.32,184.34,192.6"/>
			<path id="Fill-10_00000168805800603533108060000011253628888329825967_" class="st3" d="M572.69,165.6
				c-2.62-0.57-5.51-0.53-8.17-0.48c-14.3,0.19-28.34,6.96-37.48,17.78c-7.78,9.21-9.92,20.66-11.46,32.23
				c-0.15,1.15-0.22,2.29-0.3,3.44c-0.02,0.25-0.05,0.47-0.08,0.68c-0.6,0.54-0.92,1.17-0.56,1.86c-1.33,2.91-2.46,5.9-3.42,8.98
				c-2.84,9.07-5.74,18.31-3.96,27.85c0.42-5.25,1.29-10.62,2.34-15.78c0.06-0.3,0.13-0.59,0.19-0.88c0.01-0.03,0.01-0.06,0.02-0.09
				c0.37-1.58,0.85-3.11,1.44-4.62c0.01-0.02,0.01-0.03,0.02-0.05c0.08-0.2,0.16-0.4,0.24-0.59c0.17-0.41,0.34-0.82,0.52-1.22
				c0.06-0.14,0.12-0.28,0.18-0.42c0.85-2.09,1.21-4.45,1.98-6.61c0.18-0.49,0.37-0.98,0.57-1.47c0.01-0.03,0.02-0.06,0.04-0.09
				c0.54-1.31,1.14-2.61,1.77-3.89c0.34-0.26,0.53-0.9,0.82-1.48c0.06-0.11,0.54-0.88,0.68-1.32c0.37-0.72,0.74-1.44,1.12-2.16
				c-0.01,0-0.02,0.01-0.03,0.01c0.38-0.69,0.75-1.38,1.13-2.06c0.08-0.15,0.17-0.3,0.25-0.45c0.13-0.24,0.27-0.48,0.4-0.72
				c1.25-2.24,2.58-4.44,3.96-6.61c0.49-0.77,1.67-1.88,1.89-2.75c0.01-0.03,0.01-0.06,0.02-0.09c2.99-4.2,6.44-8.08,10.57-11.15
				c-0.5,0.54-1.56,2.37-1.84,2.73c-0.86,1.11-1.79,2.14-2.73,3.19c-1.68,1.87-3.31,3.81-4.77,5.85c-2.66,3.74-4.95,7.68-7.12,11.69
				c-0.02,0.02-0.04,0.05-0.06,0.07c-1.09,1.34-1.78,3.37-2.56,4.91c3.1-1.44,6.54-2.37,9.72-3.65c3.18-1.27,6.27-2.69,9.25-4.36
				c3.97-2.21,8.08-4.71,11.83-7.54c4.29-2.66,7.9-6.33,11.09-10.18c3.77-4.55,7.22-9.15,9.36-14.67c1.05-2.72,1.88-5.55,2.36-8.42
				c0.02-0.12,0.05-0.26,0.08-0.4c0.5-0.99,0.95-2,1.32-3.04C573.92,167.98,575.33,166.17,572.69,165.6"/>
			<path id="Leave-the-Leaf_x21__00000038412166184910508610000011076251739491570105_" class="st0" d="M129.19,184.83
				c-0.82-0.89-1.74-1.69-2.82-2.26c-0.27-0.14-2.31-1.11-2.44-0.9C123.62,182.17,128.94,184.55,129.19,184.83 M138.84,178.9
				c-0.01,0.04,0.7,1.24,0.89,1.6c0.41,0.78,0.79,1.58,1.14,2.38C140.35,181.47,139.81,180.16,138.84,178.9 M89.47,188.65
				c-0.68,0.22-1.5-0.64-0.62-0.86c0.71-0.17,0.68-0.21,1-0.79c0.26-0.47,0.42-1.04,0.65-1.53c0.48-1.04,1.03-2.03,1.71-2.96
				c1.45-1.99,3.21-3.71,5.18-5.15c3.45-2.52,7.31-4.83,11.41-5.99c6.52-1.84,13.94-1.96,20.47-0.68c4.04,0.79,7.74,2.17,10.42,5.42
				c1.34,1.63,2.4,3.53,2.86,5.63c0.12,0.55,0.1,1.16,0.25,1.7c0.23,0.83,0.13,0.61,1.1,0.77c1.05,0.18,2.11,0.35,3.16,0.54
				c2.76,0.48,5.53,0.98,8.22,1.76c0.88,0.25,1.75,0.57,2.59,0.93c0.64,0.27,3.18,1.13,3.49,1.96c0.51,1.38-1.21,0.76-1.75,0.45
				c-0.47-0.26-0.95-0.51-1.44-0.74c-1.23-0.57-2.51-1.01-3.83-1.36c-1.42-0.38-2.86-0.66-4.31-0.95c-1.34-0.26-2.69-0.5-4.04-0.73
				c-0.75-0.13-1.5-0.25-2.25-0.38c-0.26-0.04-0.71-0.26-0.67,0.07c-1.58-0.3-3.29-0.26-4.9-0.34c-1.97-0.1-3.95-0.19-5.92-0.13
				c-1.43,0.04-2.85,0.14-4.27,0.33c-0.83,0.11-1.64,0.28-2.46,0.48c-0.45,0.11-2.21,0.36-2.45,0.74c0.1-0.17,2.05-0.01,2.3-0.01
				c0.99-0.04,1.97-0.14,2.96-0.25c1.83-0.2,3.66-0.31,5.5-0.3c-0.01,0.32-1.26,0.9-1.57,1.11c-0.69,0.48-1.34,1-1.96,1.57
				c-1.08,1.01-2.37,2.26-3.12,3.45c0.22-0.35,1.31-0.81,1.69-1.08c0.62-0.43,1.22-0.89,1.79-1.38c0.53-0.45,1.02-0.94,1.51-1.45
				c0.48-0.5,1.14-1.54,1.78-1.88c0.04-0.02,0.32,0.2,0.47,0.12c0.16-0.08,0.36-0.45,0.4-0.47c0.59-0.23,1.72,0.06,2.34,0.08
				c1.62,0.07,3.23,0.17,4.85,0.26c0.5,0.03,0.93-0.09,1.12,0.28c0.2,0.39-0.17,1.43-0.27,1.86c-0.39,1.59-1.08,3.02-2.17,4.26
				c-2.04,2.31-4.56,3.85-7.4,4.88c-10.88,3.95-22.46,5.53-33.34,1.42C95.44,197.67,88.66,194.63,89.47,188.65"/>
			
				<g id="Background-Shape-2_00000120538741232875914810000013459270531231667367_" transform="translate(39.000000, 358.000000)" class="st4">
				<path id="Background-Shape_00000036247271724923602300000012380718520668606109_" class="st1" d="M548.83,16.69
					c7.4,50.12-172.17,82.82-326.73,60S-3.37-35.23,70.38-82.71S541.42-33.44,548.83,16.69z"/>
			</g>
			<g id="Mobile3_00000116224589634090335560000000355001909276322447_" transform="translate(138.000000, 76.000000)">
				<path id="Container_00000167371220742179111770000001278159011027070903_" class="st5" d="M24.13-30.12h109.73
					c3.39,0,6.14,2.75,6.14,6.14v219.46c0,3.39-2.75,6.14-6.14,6.14H24.13c-3.39,0-6.14-2.75-6.14-6.14V-23.98
					C17.99-27.37,20.74-30.12,24.13-30.12z"/>
				<circle id="Touch_00000168796213290360353270000017099043326159738259_" class="st6" cx="78.66" cy="175.8" r="11.51"/>
				<g id="Camera_00000155119201740596298310000017706410143752652979_" transform="translate(64.000000, 16.000000)">
					<circle id="Lens_00000169555316663172367970000008649983582142503319_" class="st6" cx="4.68" cy="-32.03" r="1.53"/>
					<path id="Sensor_00000155847740366982459960000003606869011033442466_" class="st6" d="M11.59-33.84h13.04
						c0.85,0,1.53,0.69,1.53,1.53l0,0c0,0.85-0.69,1.53-1.53,1.53H11.59c-0.85,0-1.53-0.69-1.53-1.53l0,0
						C10.06-33.15,10.74-33.84,11.59-33.84z"/>
				</g>
				<g id="Rows_00000145757094787726413540000001659795885136597161_" transform="translate(14.000000, 28.000000)">
					<g id="Row_00000124868187087390922640000017288010336815792799_">
						<path id="Background_00000158010789124194073330000003047680653715982243_" class="st6" d="M17.8-36.63h94.38
							c1.7,0,3.07,1.37,3.07,3.07v35.3c0,1.7-1.37,3.07-3.07,3.07H17.8c-1.7,0-3.07-1.37-3.07-3.07v-35.3
							C14.73-35.26,16.11-36.63,17.8-36.63z"/>
						<g id="Text_00000030452147813912968200000014030007406082093214_" transform="translate(39.000000, 16.200000)">
							<path id="Name_00000013873531354207315130000015597409786329360546_" class="st1" d="M7.96-39.79h51.41
								c1.27,0,2.3,1.03,2.3,2.3v1.53c0,1.27-1.03,2.3-2.3,2.3H7.96c-1.27,0-2.3-1.03-2.3-2.3v-1.53
								C5.66-38.76,6.69-39.79,7.96-39.79z"/>
							<path id="Name_00000106856777419082619870000001950778443037215161_" class="st1" d="M7.96-29.81h33c1.27,0,2.3,1.03,2.3,2.3
								v1.53c0,1.27-1.03,2.3-2.3,2.3h-33c-1.27,0-2.3-1.03-2.3-2.3v-1.53C5.66-28.78,6.69-29.81,7.96-29.81z"/>
						</g>
						<circle id="Avatar_00000137113503725176393270000000628717516667160237_" class="st7" cx="30.9" cy="-15.64" r="9.21"/>
					</g>
					<g id="Row_00000137836787402043690750000012268390012236885648_" transform="translate(0.000000, 62.000000)">
						<path id="Background_00000005253581503433601030000011539251682856908980_" class="st6" d="M17.8-51.06h94.38
							c1.7,0,3.07,1.37,3.07,3.07v26.09c0,1.7-1.37,3.07-3.07,3.07H17.8c-1.7,0-3.07-1.37-3.07-3.07v-26.09
							C14.73-49.68,16.11-51.06,17.8-51.06z"/>
						<g id="Text_00000132793476444394554100000000587603341194787459_" transform="translate(39.000000, 12.600000)">
							<path id="Name_00000165196589960721614670000004588808141684424607_" class="st1" d="M7.96-53.68h51.41
								c1.27,0,2.3,1.03,2.3,2.3v0c0,1.27-1.03,2.3-2.3,2.3H7.96c-1.27,0-2.3-1.03-2.3-2.3v0C5.66-52.65,6.69-53.68,7.96-53.68z"/>
							<path id="Name_00000075127840655653784780000008584361117362661021_" class="st1" d="M7.96-45.24h33c1.27,0,2.3,1.03,2.3,2.3
								v0c0,1.27-1.03,2.3-2.3,2.3h-33c-1.27,0-2.3-1.03-2.3-2.3v0C5.66-44.21,6.69-45.24,7.96-45.24z"/>
						</g>
						<circle id="Avatar_00000002353591513965595250000001552490002957235089_" class="st7" cx="30.9" cy="-34.67" r="9.21"/>
					</g>
					<g id="Row_00000168819511318349439930000016276811858328780438_" transform="translate(0.000000, 112.000000)">
						<path id="Background_00000171703939401624387670000006593494768990752413_" class="st6" d="M17.8-62.69h94.38
							c1.7,0,3.07,1.37,3.07,3.07v26.09c0,1.7-1.37,3.07-3.07,3.07H17.8c-1.7,0-3.07-1.37-3.07-3.07v-26.09
							C14.73-61.32,16.11-62.69,17.8-62.69z"/>
						<g id="Text_00000101786308721642062770000008015779455084804240_" transform="translate(39.000000, 12.600000)">
							<path id="Name_00000169532056150145565720000007040041766802950845_" class="st1" d="M7.96-65.31h51.41
								c1.27,0,2.3,1.03,2.3,2.3v0c0,1.27-1.03,2.3-2.3,2.3H7.96c-1.27,0-2.3-1.03-2.3-2.3v0C5.66-64.28,6.69-65.31,7.96-65.31z"/>
							<path id="Name_00000090269684090185297750000015736546323139900069_" class="st1" d="M7.96-56.87h33c1.27,0,2.3,1.03,2.3,2.3
								v0c0,1.27-1.03,2.3-2.3,2.3h-33c-1.27,0-2.3-1.03-2.3-2.3v0C5.66-55.84,6.69-56.87,7.96-56.87z"/>
						</g>
						<circle id="Avatar_00000085951793842437738130000012194816930347915425_" class="st8" cx="30.9" cy="-46.31" r="9.21"/>
					</g>
					<g id="Row_00000133488831962654938350000015201345020364513162_" transform="translate(0.000000, 162.000000)">
						<path id="Background_00000000185338034920449250000013685567586555867019_" class="st6" d="M17.8-74.32h94.38
							c1.7,0,3.07,1.37,3.07,3.07v26.09c0,1.7-1.37,3.07-3.07,3.07H17.8c-1.7,0-3.07-1.37-3.07-3.07v-26.09
							C14.73-72.95,16.11-74.32,17.8-74.32z"/>
						<g id="Text_00000178921870365962848380000017569715917385356216_" transform="translate(39.000000, 12.600000)">
							<path id="Name_00000158727916131626381360000009790339485125525416_" class="st1" d="M7.96-76.95h51.41
								c1.27,0,2.3,1.03,2.3,2.3v0c0,1.27-1.03,2.3-2.3,2.3H7.96c-1.27,0-2.3-1.03-2.3-2.3v0C5.66-75.92,6.69-76.95,7.96-76.95z"/>
							<path id="Name_00000156583327899154201540000016829298085956754879_" class="st1" d="M7.96-68.51h33c1.27,0,2.3,1.03,2.3,2.3
								l0,0c0,1.27-1.03,2.3-2.3,2.3h-33c-1.27,0-2.3-1.03-2.3-2.3l0,0C5.66-67.48,6.69-68.51,7.96-68.51z"/>
						</g>
						<circle id="Avatar_00000072272847062930133440000000557216783383005579_" class="st7" cx="30.9" cy="-57.94" r="9.21"/>
					</g>
				</g>
			</g>
			<g id="Mobile3_00000123413589978288452530000007273407300879699128_" transform="translate(156.000000, 102.000000)">
				<g id="Group_00000142882320722159677310000010802395554891790516_" transform="translate(0.000000, 218.000000)">
					<path id="Fill-16_00000061438808918147710000000003048114993930234035_" class="st0" d="M23.17-86.62
						c-1.02,0-2.03,0.02-3.05,0.07c-0.77,0.04-1.96-0.12-2.61,0.36c-0.68,0.5-0.63,1.53-0.53,2.25c0.56,3.83,1.93,7.23,4.8,9.94
						c4.42,4.18,9.48,6.3,15.47,7.25c4.21,0.66,8.1-0.26,11.19-3.25c2.26,4.2,3.98,8.85,4.84,13.55c0.43,2.32,0.55,4.6,0.48,6.96
						c-0.05,1.51-0.13,3.02-0.29,4.52c-0.07,0.65-0.4,1.64-0.15,2.26c0.3,0.72,1.31,0.8,1.77,0.18c0.38-0.51,0.31-1.52,0.39-2.13
						c0.13-1.01,0.25-2.02,0.33-3.04c0.14-1.64,0.24-3.29,0.23-4.94c-0.02-3.71-0.84-7.43-1.97-10.95
						c-2.16-6.75-5.67-12.76-11.14-17.47c-3.36-2.9-7.2-4.07-11.56-4.7C28.68-86.16,25.92-86.62,23.17-86.62"/>
					<path id="Fill-18_00000154413422430761530950000015396872063243865255_" class="st0" d="M38.85-59.76
						c-10.97,0-18.36,8.84-21.86,18.03c-1.32,3.46-1.63,7.27-2.13,10.91c-0.16,1.17-0.1,2.95-0.58,3.99
						c-0.17,0.38-0.57,0.51-0.38,1.03c0.11,0.31,0.34,0.5,0.67,0.56c0.69,0.13,1.67-0.62,2.26-0.92c4.91-2.46,8.13-6.27,10.76-10.92
						c1.63-2.89,3.29-5.88,4.25-9.05c0.59-1.94,0.94-3.97,1.14-5.98c0.08-0.79,0.16-1.6,0.15-2.4c0-0.79-0.37-1.21-0.64-1.89
						c3.66-1.39,7.79-1.76,11.5-0.33c3.43,1.33,6.28,3.89,7.87,7.12c0.41,0.84,0.73,1.72,0.97,2.62c0.15,0.59,0.16,1.36,0.44,1.89
						c0.68,1.29,2.13,0.43,1.99-0.78c-0.39-3.36-2.31-6.74-4.77-9.07C47.41-57.9,43.21-59.76,38.85-59.76"/>
				</g>
				<path id="Container_00000152947482482600684910000001299039821298875813_" class="st1" d="M56.77-36.17H166.5
					c3.39,0,6.14,2.75,6.14,6.14v219.46c0,3.39-2.75,6.14-6.14,6.14H56.77c-3.39,0-6.14-2.75-6.14-6.14V-30.03
					C50.63-33.42,53.38-36.17,56.77-36.17z"/>
				<circle id="Touch_00000034076937477957712530000011720533451529381273_" class="st6" cx="111.3" cy="169.75" r="11.51"/>
				<g id="Camera_00000107560176829825431080000008600125713395241911_" transform="translate(112.000000, 16.000000)">
					<circle id="Lens_00000176764349050094672890000003277616141371545233_" class="st6" cx="-10.67" cy="-38.08" r="1.53"/>
					<path id="Sensor_00000050655928266176938820000004310656570282666658_" class="st6" d="M-3.77-39.89H9.28
						c0.85,0,1.53,0.69,1.53,1.53l0,0c0,0.85-0.69,1.53-1.53,1.53H-3.77c-0.85,0-1.53-0.69-1.53-1.53l0,0
						C-5.3-39.2-4.61-39.89-3.77-39.89z"/>
				</g>
				<g id="Rows_00000023975267232870245070000011224544372902825089_" transform="translate(62.000000, 28.000000)">
					<g id="Row_00000049920721006118732800000015902120905409473953_">
						<path id="Container_00000003826188612009431690000017371273080796018594_" class="st6" d="M2.44-42.68h94.38
							c1.7,0,3.07,1.37,3.07,3.07v35.3c0,1.7-1.37,3.07-3.07,3.07H2.44c-1.7,0-3.07-1.37-3.07-3.07v-35.3
							C-0.63-41.31,0.75-42.68,2.44-42.68z"/>
						<g id="Text-Stuff_00000170979121106227475470000013668950373083079062_" transform="translate(9.000000, 16.200000)">
							<path id="Label_00000054244207958559134510000003867585490186997913_" class="st1" d="M-0.42-45.84h51.41
								c1.27,0,2.3,1.03,2.3,2.3V-42c0,1.27-1.03,2.3-2.3,2.3H-0.42c-1.27,0-2.3-1.03-2.3-2.3v-1.53
								C-2.72-44.8-1.69-45.84-0.42-45.84z"/>
							<path id="Label_00000036237025294395421360000003961435425981563010_" class="st1" d="M-0.42-35.86h33
								c1.27,0,2.3,1.03,2.3,2.3v1.53c0,1.27-1.03,2.3-2.3,2.3h-33c-1.27,0-2.3-1.03-2.3-2.3v-1.53
								C-2.72-34.83-1.69-35.86-0.42-35.86z"/>
						</g>
						<g id="Check_00000076587595867906410110000005516406487292465074_" transform="translate(110.000000, 20.000000)">
							
								<circle id="Background_00000013885955969949855780000005521260280608124853_" class="st1" cx="-20.79" cy="-41.69" r="5.37"/>
							<circle id="Indicator_00000163775264519275553340000006392317795448980123_" class="st5" cx="-20.79" cy="-41.69" r="2.3"/>
						</g>
					</g>
					<g id="Row_00000035500123895446324440000003401349983747970479_" transform="translate(0.000000, 62.000000)">
						<path id="Background_00000151540255929955007580000007493840939866062723_" class="st6" d="M2.44-57.11h94.38
							c1.7,0,3.07,1.37,3.07,3.07v26.09c0,1.7-1.37,3.07-3.07,3.07H2.44c-1.7,0-3.07-1.37-3.07-3.07v-26.09
							C-0.63-55.73,0.75-57.11,2.44-57.11z"/>
						<g id="Text_00000029032875380507699160000011409614913122565513_" transform="translate(39.000000, 12.600000)">
							<path id="Name_00000013176901000443689000000007991285633902104504_" class="st1" d="M-7.4-59.73h51.41
								c1.27,0,2.3,1.03,2.3,2.3v0c0,1.27-1.03,2.3-2.3,2.3H-7.4c-1.27,0-2.3-1.03-2.3-2.3v0C-9.7-58.7-8.67-59.73-7.4-59.73z"/>
							<path id="Name_00000023252624445747668860000004805008570787121558_" class="st1" d="M-7.4-51.29h33c1.27,0,2.3,1.03,2.3,2.3
								v0c0,1.27-1.03,2.3-2.3,2.3h-33c-1.27,0-2.3-1.03-2.3-2.3v0C-9.7-50.26-8.67-51.29-7.4-51.29z"/>
						</g>
						<circle id="Avatar_00000065048685697691898870000010948176540195224986_" class="st7" cx="15.54" cy="-40.72" r="9.21"/>
					</g>
					<g id="Row_00000004543230154386312060000014286072371914567051_" transform="translate(0.000000, 112.000000)">
						<path id="Container_00000082365356648175420890000008730741426543922601_" class="st6" d="M2.44-68.74h94.38
							c1.7,0,3.07,1.37,3.07,3.07v26.09c0,1.7-1.37,3.07-3.07,3.07H2.44c-1.7,0-3.07-1.37-3.07-3.07v-26.09
							C-0.63-67.36,0.75-68.74,2.44-68.74z"/>
						<g id="Text-Stuff_00000134952360638096079900000002716079107736508342_" transform="translate(9.000000, 12.600000)">
							<path id="Label_00000011001848296352205730000003509473109593630893_" class="st1" d="M-0.42-71.36h51.41
								c1.27,0,2.3,1.03,2.3,2.3l0,0c0,1.27-1.03,2.3-2.3,2.3H-0.42c-1.27,0-2.3-1.03-2.3-2.3l0,0
								C-2.72-70.33-1.69-71.36-0.42-71.36z"/>
							<path id="Label_00000078737769332752058050000004459354142371354529_" class="st8" d="M-0.42-62.92h33
								c1.27,0,2.3,1.03,2.3,2.3v0c0,1.27-1.03,2.3-2.3,2.3h-33c-1.27,0-2.3-1.03-2.3-2.3v0C-2.72-61.89-1.69-62.92-0.42-62.92z"/>
						</g>
						<g id="Check_00000097471851349526276680000012992247014332134078_" transform="translate(110.000000, 14.000000)">
							
								<circle id="Background_00000031202877754495482930000015654812697674721942_" class="st1" cx="-20.79" cy="-66.36" r="5.37"/>
							<circle id="Indicator_00000003810857357967071590000009492247532600301717_" class="st5" cx="-20.79" cy="-66.36" r="2.3"/>
						</g>
					</g>
					<g id="Row_00000166660958050121815750000006134206401547768973_" transform="translate(0.000000, 162.000000)">
						<path id="Background_00000168112984496109549800000003292069995121394342_" class="st6" d="M2.44-80.37h94.38
							c1.7,0,3.07,1.37,3.07,3.07v26.09c0,1.7-1.37,3.07-3.07,3.07H2.44c-1.7,0-3.07-1.37-3.07-3.07V-77.3
							C-0.63-79,0.75-80.37,2.44-80.37z"/>
						<g id="Text_00000093866518377151208590000015138136243537620367_" transform="translate(39.000000, 12.600000)">
							<path id="Name_00000124846271479018166150000009720148383425600140_" class="st1" d="M-7.4-83h51.41c1.27,0,2.3,1.03,2.3,2.3
								v0c0,1.27-1.03,2.3-2.3,2.3H-7.4c-1.27,0-2.3-1.03-2.3-2.3v0C-9.7-81.97-8.67-83-7.4-83z"/>
							<path id="Name_00000103975150145573347810000012050116156558537111_" class="st1" d="M-7.4-74.56h33c1.27,0,2.3,1.03,2.3,2.3
								v0c0,1.27-1.03,2.3-2.3,2.3h-33c-1.27,0-2.3-1.03-2.3-2.3v0C-9.7-73.53-8.67-74.56-7.4-74.56z"/>
						</g>
						<circle id="Avatar_00000029757874691650191460000006912695859636618149_" class="st7" cx="15.54" cy="-63.99" r="9.21"/>
					</g>
				</g>
			</g>
			<g id="Web_00000151510651114062775280000015948734529218058657_" transform="translate(270.000000, 127.000000)">
				<path id="Container_00000107582362821875764540000002049365769918913452_" class="st5" d="M-6.59-41.98h244.78
					c3.39,0,6.14,2.75,6.14,6.14v253.22c0,3.39-2.75,6.14-6.14,6.14H-6.59c-3.39,0-6.14-2.75-6.14-6.14V-35.84
					C-12.72-39.23-9.98-41.98-6.59-41.98z"/>
				<path id="Background_00000129923274288540808200000013175099188707659150_" class="st6" d="M184.48-8.99h41.44
					c3.39,0,6.14,2.75,6.14,6.14v49.88c0,3.39-2.75,6.14-6.14,6.14h-41.44c-3.39,0-6.14-2.75-6.14-6.14V-2.85
					C178.34-6.24,181.09-8.99,184.48-8.99z"/>
				<g id="Profile-Info_00000029736842634643529320000009020117246910800556_" transform="translate(259.000000, 58.000000)">
					<circle id="Avatar_00000130635614255548358930000002322515608758822542_" class="st1" cx="-53.75" cy="-42.93" r="12.28"/>
					<path id="Name_00000179638525909126065400000000652369010771047829_" class="st1" d="M-70.63-27.85h33.76
						c1.27,0,2.3,1.03,2.3,2.3l0,0c0,1.27-1.03,2.3-2.3,2.3h-33.76c-1.27,0-2.3-1.03-2.3-2.3l0,0
						C-72.93-26.82-71.9-27.85-70.63-27.85z"/>
					<path id="Name_00000134940462318227362350000000840718683263519392_" class="st1" d="M-64.49-20.18h21.49
						c1.27,0,2.3,1.03,2.3,2.3l0,0c0,1.27-1.03,2.3-2.3,2.3h-21.49c-1.27,0-2.3-1.03-2.3-2.3l0,0
						C-66.79-19.15-65.76-20.18-64.49-20.18z"/>
				</g>
				<path id="Header_00000060749171591301194420000016715926417883491464_" class="st7" d="M-6.59-41.98h244.78
					c3.39,0,6.14,2.75,6.14,6.14v14.58H-12.72v-14.58C-12.72-39.23-9.98-41.98-6.59-41.98z"/>
				<g id="Buttons_00000067931211577362731670000014368297215056597420_" transform="translate(9.000000, 10.000000)">
					<circle id="buttons_00000070800017879488516810000013850151243810176927_" class="st5" cx="-11.7" cy="-40.97" r="3.07"/>
					<circle id="buttons_00000112598117209374193870000012450011552181056898_" class="st5" cx="-2.49" cy="-40.97" r="3.07"/>
					<circle id="buttons_00000013164040667669119070000000270866063917078146_" class="st5" cx="6.72" cy="-40.97" r="3.07"/>
				</g>
				<g id="Components_00000008871618287212591450000017176532839939275199_" transform="translate(249.000000, 132.000000)">
					<path id="Background_00000133488580068331400380000009217692804624435079_" class="st6" d="M-64.52-72.69h41.44
						c3.39,0,6.14,2.75,6.14,6.14V70.03c0,3.39-2.75,6.14-6.14,6.14h-41.44c-3.39,0-6.14-2.75-6.14-6.14V-66.56
						C-70.66-69.95-67.91-72.69-64.52-72.69z"/>
					<g id="Rows_00000076602329730844076770000004724698351190605229_" transform="translate(18.000000, 18.000000)">
						<path id="Data_00000132779800036376392840000003814436559092569735_" class="st1" d="M-71.78-76.88h19.95
							c1.7,0,3.07,1.37,3.07,3.07V-60c0,1.7-1.37,3.07-3.07,3.07h-19.95c-1.7,0-3.07-1.37-3.07-3.07v-13.81
							C-74.85-75.51-73.47-76.88-71.78-76.88z"/>
						<path id="Data_00000122692165796071138210000002355305816035481483_" class="st8" d="M-71.78-50.79h19.95
							c1.7,0,3.07,1.37,3.07,3.07v13.04c0,1.7-1.37,3.07-3.07,3.07h-19.95c-1.7,0-3.07-1.37-3.07-3.07v-13.04
							C-74.85-49.42-73.47-50.79-71.78-50.79z"/>
						<path id="Data_00000000921181821227213710000016168383610017135499_" class="st1" d="M-71.78-25.47h19.95
							c1.7,0,3.07,1.37,3.07,3.07v13.04c0,1.7-1.37,3.07-3.07,3.07h-19.95c-1.7,0-3.07-1.37-3.07-3.07V-22.4
							C-74.85-24.1-73.47-25.47-71.78-25.47z"/>
						<path id="Data_00000056423212755744860040000005663071346289844120_" class="st1" d="M-71.78,25.17h19.95
							c1.7,0,3.07,1.37,3.07,3.07v13.04c0,1.7-1.37,3.07-3.07,3.07h-19.95c-1.7,0-3.07-1.37-3.07-3.07V28.24
							C-74.85,26.55-73.47,25.17-71.78,25.17z"/>
						<path id="Data_00000101790260983412060860000017095621068826822844_" class="st7" d="M-71.78-0.15h19.95
							c1.7,0,3.07,1.37,3.07,3.07v13.04c0,1.7-1.37,3.07-3.07,3.07h-19.95c-1.7,0-3.07-1.37-3.07-3.07V2.92
							C-74.85,1.22-73.47-0.15-71.78-0.15z"/>
					</g>
				</g>
				<g id="Rows_00000121252719715473663370000003630871897371303327_" transform="translate(16.000000, 44.000000)">
					<g id="Row_00000003105430696731635410000009070665761493401737_">
						<path id="Container_00000090984726840004308220000003870103455354755751_" class="st6" d="M-13.38-52.22h166.51
							c1.7,0,3.07,1.37,3.07,3.07v29.93c0,1.7-1.37,3.07-3.07,3.07H-13.38c-1.7,0-3.07-1.37-3.07-3.07v-29.93
							C-16.45-50.85-15.07-52.22-13.38-52.22z"/>
						<g id="Text-Stuff_00000122695542089539866150000015857525072603461780_" transform="translate(9.000000, 14.100000)">
							<path id="Label_00000057839590254646574500000003392531639716766380_" class="st1" d="M-16.24-55.58H107.3
								c1.27,0,2.3,1.03,2.3,2.3v0.77c0,1.27-1.03,2.3-2.3,2.3H-16.24c-1.27,0-2.3-1.03-2.3-2.3v-0.77
								C-18.54-54.55-17.51-55.58-16.24-55.58z"/>
							<path id="Label_00000022530509531698679200000001928370634406671036_" class="st1" d="M-16.24-46.37H65.1
								c1.27,0,2.3,1.03,2.3,2.3v0.77c0,1.27-1.03,2.3-2.3,2.3h-81.34c-1.27,0-2.3-1.03-2.3-2.3v-0.77
								C-18.54-45.34-17.51-46.37-16.24-46.37z"/>
						</g>
						<g id="Check_00000134248936665960661310000011550270990200005024_" transform="translate(193.954198, 16.500000)">
							
								<circle id="Background_00000093887460120954135590000008578673470004539031_" class="st1" cx="-56.15" cy="-50.42" r="5.37"/>
							<circle id="Indicator_00000107575033547517842660000007640145218981359792_" class="st5" cx="-56.15" cy="-50.42" r="2.3"/>
						</g>
					</g>
					<g id="Row_00000181804301781973163280000000515633842137547681_" transform="translate(0.000000, 55.000000)">
						<path id="Container_00000120542372386932171380000009574168055763872167_" class="st6" d="M-13.38-65.02h166.51
							c1.7,0,3.07,1.37,3.07,3.07v23.79c0,1.7-1.37,3.07-3.07,3.07H-13.38c-1.7,0-3.07-1.37-3.07-3.07v-23.79
							C-16.45-63.64-15.07-65.02-13.38-65.02z"/>
						<g id="Text-Stuff_00000116949604141396526890000000602963111572072605_" transform="translate(9.000000, 11.700000)">
							<path id="Label_00000072990098626952146510000005313335886861772185_" class="st1" d="M-16.24-67.51h123.66
								c1.24,0,2.24,1.03,2.24,2.3l0,0c0,1.27-1,2.3-2.24,2.3H-16.24c-1.24,0-2.24-1.03-2.24-2.3l0,0
								C-18.49-66.48-17.48-67.51-16.24-67.51z"/>
							<path id="Label_00000172422467943958658310000000889985649587651754_" class="st1" d="M-17.29-59.83h83.62
								c1.27,0,2.3,1.03,2.3,2.3l0,0c0,1.27-1.03,2.3-2.3,2.3h-83.62c-1.27,0-2.3-1.03-2.3-2.3l0,0
								C-19.59-58.8-18.56-59.83-17.29-59.83z"/>
						</g>
						<g id="Check_00000121250002433353350170000012059679538470273679_" transform="translate(193.954198, 12.500000)">
							
								<circle id="Background_00000029019144506293618530000006674386141699824769_" class="st1" cx="-56.15" cy="-62.28" r="5.37"/>
							<circle id="Indicator_00000039116580144920606250000005183034443056864909_" class="st5" cx="-56.15" cy="-62.28" r="2.3"/>
						</g>
					</g>
					<g id="Row_00000077315081960199106900000009171999596297728640_" transform="translate(0.000000, 102.000000)">
						<path id="Container_00000148619588388676191700000016797587415009859206_" class="st6" d="M-13.38-75.95h166.51
							c1.7,0,3.07,1.37,3.07,3.07v23.79c0,1.7-1.37,3.07-3.07,3.07H-13.38c-1.7,0-3.07-1.37-3.07-3.07v-23.79
							C-16.45-74.58-15.07-75.95-13.38-75.95z"/>
						<g id="Text-Stuff_00000127753235483672554050000007038768110952656277_" transform="translate(9.000000, 11.700000)">
							<path id="Label_00000016037177056362574610000013151446014798181009_" class="st1" d="M-16.24-78.44h123.66
								c1.24,0,2.24,1.03,2.24,2.3l0,0c0,1.27-1,2.3-2.24,2.3H-16.24c-1.24,0-2.24-1.03-2.24-2.3l0,0
								C-18.49-77.41-17.48-78.44-16.24-78.44z"/>
							<path id="Label_00000091736108544998070320000010885108950940862884_" class="st1" d="M-17.29-70.77h83.62
								c1.27,0,2.3,1.03,2.3,2.3l0,0c0,1.27-1.03,2.3-2.3,2.3h-83.62c-1.27,0-2.3-1.03-2.3-2.3l0,0
								C-19.59-69.74-18.56-70.77-17.29-70.77z"/>
						</g>
						<g id="Check_00000014617333227130179090000015497414347428434076_" transform="translate(193.954198, 12.500000)">
							
								<circle id="Background_00000063603084866545218750000006905382649869487294_" class="st1" cx="-56.15" cy="-73.22" r="5.37"/>
							<circle id="Indicator_00000062158497481690687970000000681339992764110517_" class="st8" cx="-56.15" cy="-73.22" r="2.3"/>
						</g>
					</g>
					<g id="Row_00000003820930916817087560000011705239331235286194_" transform="translate(0.000000, 243.000000)">
						<path id="Container_00000135656849924563237220000009453281908078063029_" class="st6" d="M-13.38-108.76h166.51
							c1.7,0,3.07,1.37,3.07,3.07v23.79c0,1.7-1.37,3.07-3.07,3.07H-13.38c-1.7,0-3.07-1.37-3.07-3.07v-23.79
							C-16.45-107.38-15.07-108.76-13.38-108.76z"/>
						<g id="Text-Stuff_00000023258186686512421840000014354894766972226196_" transform="translate(9.000000, 11.700000)">
							<path id="Label_00000172409695027767045640000006649569566850632874_" class="st1" d="M-16.24-111.25h123.66
								c1.24,0,2.24,1.03,2.24,2.3l0,0c0,1.27-1,2.3-2.24,2.3H-16.24c-1.24,0-2.24-1.03-2.24-2.3l0,0
								C-18.49-110.22-17.48-111.25-16.24-111.25z"/>
							<path id="Label_00000171713913917844334990000001647369885247123133_" class="st1" d="M-17.29-103.58h83.62
								c1.27,0,2.3,1.03,2.3,2.3l0,0c0,1.27-1.03,2.3-2.3,2.3h-83.62c-1.27,0-2.3-1.03-2.3-2.3l0,0
								C-19.59-102.55-18.56-103.58-17.29-103.58z"/>
						</g>
						<g id="Check_00000000902446630038053880000011564833571906965183_" transform="translate(193.954198, 12.500000)">
							
								<circle id="Background_00000027586690522313624990000009643893988663119763_" class="st1" cx="-56.15" cy="-106.03" r="5.37"/>
							<circle id="Indicator_00000179604243916988224900000008631163829697632410_" class="st5" cx="-56.15" cy="-106.03" r="2.3"/>
						</g>
					</g>
					<g id="Row_00000146467112866074834880000007664286060146303629_" transform="translate(0.000000, 196.000000)">
						<path id="Container_00000132076868090383070580000018380564411219908767_" class="st6" d="M-13.38-97.82h166.51
							c1.7,0,3.07,1.37,3.07,3.07v23.79c0,1.7-1.37,3.07-3.07,3.07H-13.38c-1.7,0-3.07-1.37-3.07-3.07v-23.79
							C-16.45-96.45-15.07-97.82-13.38-97.82z"/>
						<g id="Text-Stuff_00000180365690875615546220000003434723501790322082_" transform="translate(9.000000, 11.700000)">
							<path id="Label_00000001634699235915978270000011047252949535706011_" class="st1" d="M-16.24-100.31h123.66
								c1.24,0,2.24,1.03,2.24,2.3l0,0c0,1.27-1,2.3-2.24,2.3H-16.24c-1.24,0-2.24-1.03-2.24-2.3l0,0
								C-18.49-99.28-17.48-100.31-16.24-100.31z"/>
							<path id="Label_00000132791308907529597770000015936572658371243664_" class="st1" d="M-17.29-92.64h83.62
								c1.27,0,2.3,1.03,2.3,2.3l0,0c0,1.27-1.03,2.3-2.3,2.3h-83.62c-1.27,0-2.3-1.03-2.3-2.3l0,0
								C-19.59-91.61-18.56-92.64-17.29-92.64z"/>
						</g>
						<g id="Check_00000114782562044739579020000013719633980939140789_" transform="translate(193.954198, 12.500000)">
							
								<circle id="Background_00000014617130397412839850000016097656716365677730_" class="st1" cx="-56.15" cy="-95.09" r="5.37"/>
							<circle id="Indicator_00000109720870441120473840000017214062603460755084_" class="st5" cx="-56.15" cy="-95.09" r="2.3"/>
						</g>
					</g>
					<g id="Row_00000075884758440251843400000001039975269625068222_" transform="translate(0.000000, 149.000000)">
						<path id="Container_00000136385914248695623100000006348470356157592246_" class="st6" d="M-13.38-86.89h166.51
							c1.7,0,3.07,1.37,3.07,3.07v23.79c0,1.7-1.37,3.07-3.07,3.07H-13.38c-1.7,0-3.07-1.37-3.07-3.07v-23.79
							C-16.45-85.51-15.07-86.89-13.38-86.89z"/>
						<g id="Text-Stuff_00000181077473418878764550000003257533154837027210_" transform="translate(9.000000, 11.700000)">
							<path id="Label_00000134232063540493227590000015488714184241603262_" class="st1" d="M-16.24-89.38h123.66
								c1.24,0,2.24,1.03,2.24,2.3l0,0c0,1.27-1,2.3-2.24,2.3H-16.24c-1.24,0-2.24-1.03-2.24-2.3l0,0
								C-18.49-88.35-17.48-89.38-16.24-89.38z"/>
							<path id="Label_00000119095969807043813670000007950510272154849208_" class="st1" d="M-17.29-81.71h83.62
								c1.27,0,2.3,1.03,2.3,2.3l0,0c0,1.27-1.03,2.3-2.3,2.3h-83.62c-1.27,0-2.3-1.03-2.3-2.3l0,0
								C-19.59-80.68-18.56-81.71-17.29-81.71z"/>
						</g>
						<g id="Check_00000093877050746075897190000006310432457352954766_" transform="translate(193.954198, 12.500000)">
							
								<circle id="Background_00000147209064978410542150000012723083605869837461_" class="st1" cx="-56.15" cy="-84.15" r="5.37"/>
							<circle id="Indicator_00000040566526443975171870000014847022384310344598_" class="st5" cx="-56.15" cy="-84.15" r="2.3"/>
						</g>
					</g>
				</g>
			</g>
			<path id="Fill-1_00000023251631159126636320000009945344287421175196_" class="st2" d="M578.06,216.02
				c-3.03-2.05-7.05-2.59-10.67-2.59c-14.15,0-27.44,5.25-38.93,13.07c-6.29,4.29-11.93,9.74-16.9,15.42
				c-2.87,3.28-5.43,6.83-7.24,10.77c-1.22,2.66-2.06,5.44-2.63,8.3c-0.69,3.49-1.24,7.05-1.49,10.59c-0.1,1.4-0.91,8.81,1.41,8.93
				c-0.01,0.18-0.02,0.36,0,0.51c-5.04,7.88-8.16,17.12-11.05,25.88c-2.51,7.62-4.75,15.31-6.21,23.19
				c-1.91,10.38-3.17,20.92-3.77,31.45c-0.13,2.26-0.22,4.53-0.29,6.79c-0.06,1.93-0.13,3.87-0.19,5.8
				c-0.07,2.17-0.45,4.66-0.11,6.81c0.3,1.88,1.92,1.59,1.99-0.27c0.09-2.25,0.07-4.51,0.17-6.77c0.13-2.99,0.27-5.99,0.41-8.98
				c1.02-20.79,4.85-41.27,11.91-60.91c2.86-7.95,6.13-15.47,10.34-22.82c3.7-6.46,8.15-12.72,12.7-18.55
				c4.42-5.66,9.02-11.2,14.43-15.99c4.4-3.89,9.23-7.29,14.2-10.44c6.31-4.01,12.61-7.92,19.45-11c3.55-1.6,7.18-3.03,10.76-4.57
				c0.64-0.28,1.34-0.54,1.96-0.86C580.39,218.75,579.71,217.14,578.06,216.02"/>
			<path id="Fill-20_00000107562442023813889720000006915406848925707922_" class="st0" d="M521.15,288.63
				c5.74,0,10.84,0.75,16.13,3.03c4.56,1.97,8.72,4.57,12.76,7.41c5.68,3.99,10.15,8.63,13.28,14.78c1.87,3.67,3.24,8.88,1.99,12.88
				c-1.48,4.72-5.54,8.66-10.9,7.83c-3.31-0.51-6.34-2.7-8.86-4.77c-3.01-2.47-5.42-5.43-7.41-8.73
				c-3.24-5.37-5.15-11.45-7.91-17.06c-1.31-2.66-2.57-5.35-4.14-7.88c-0.78-1.25-1.6-2.5-2.78-3.43c-0.63-0.5-3.28-1.36-2.27-2.48
				c-14.88,0.2-28.06,11.62-30.92,25.77c-0.27,1.32-0.47,2.65-0.69,3.97c-0.14,0.84-0.08,3.93-0.83,4.46
				c-1.65,1.18-0.96-2.41-0.89-2.92c0.18-1.33,0.38-2.67,0.58-4c1.12-7.24,4.34-13.97,9.71-19.13
				C504.17,292.46,512.47,288.63,521.15,288.63"/>
			<g id="Plant_00000135683009812370721500000016446206950498005908_" transform="translate(65.000000, 333.000000)">
				<path id="Fill-19_00000147909943347854606860000001952442272143795118_" class="st1" d="M42.65-62.22
					c14.32,24.03,31.01,47.3,41.02,73.57c-0.4-3.1-0.83-6.19-1.31-9.28c-2.54-16.38-5.7-32.63-9.02-48.87
					c-1.69-8.27-3.48-16.5-5.31-24.74c-0.99-4.42-1.96-8.85-2.97-13.27c-0.24-1.07-0.45-2.94-0.76-4.84
					C74.04-57.69,83.43-25.72,90.3,7c0.9,4.29,1.67,8.58,2.3,12.86c0.21-0.98,0.43-1.95,0.66-2.93
					c2.78-11.67,6.95-23.25,11.91-34.16c2.37-5.22,5.1-10.32,8.31-15.08c2-2.96,6.72-6.49,8.55-9.52
					c-9.98,18.31-13.59,41.22-19.35,61.12c-1.41,4.86-2.82,9.71-4.21,14.57c8.69-17.43,22.18-31.76,40.93-37.96
					c-22.7,15-36.31,41.26-45.49,68.12c-0.03,0.32-0.07,0.64-0.1,0.96c2.7-5.12,6.1-9.76,10.71-13c9.86-6.95,20.81-4.92,30.38,1.04
					c-7.51-4.77-21.08-0.43-27.4,4.43c-4.52,3.47-8.39,8.13-11.75,12.68c-0.8,1.09-1.9,2.36-3.06,3.72
					c-1.63,10.55-4.27,21.03-8.02,31.43c0.62-2.98,0.17-7.76,0.34-9.98c0.02-0.24,0.03-0.48,0.05-0.72
					c-0.57,2.28-1.12,4.53-1.65,6.74c1.05-4.22,1.63-8.64,2.07-13.09c0.12-1.91,0.23-3.83,0.35-5.74
					c-0.04-3.63-0.19-7.28-0.44-10.94c-0.9-3.55-1.9-6.9-2.73-9.69c-2.99-10.05-7.38-19.68-12.77-28.67
					c-4.92-8.2-10.82-15.63-17.62-22.34c-3.67-3.62-7.51-7.07-11.29-10.56C39.59-1,37.14-4.1,35.03-5.72
					c15.41,8.49,31.27,17.68,42.51,31.37c-1.32-5.06-2.75-10.05-4.26-14.94C65.59-14.09,55.89-39.8,42.65-62.22z"/>
				<path id="Base_00000020389636730699250200000002057433830074115491_" class="st7" d="M58.05,73.8
					c0,27.55,2.18,49.88,31.46,49.88s31.46-22.33,31.46-49.88"/>
			</g>
			<g id="Graph_00000117654337180848237980000012383623097915389058_" transform="translate(520.000000, 52.000000)">
				<path id="Value_00000086684965284708521430000018277072176840346245_" class="st1" d="M-68.59,0.29L-68.59,0.29
					c1.27,0,2.3,1.03,2.3,2.3v14.58c0,1.27-1.03,2.3-2.3,2.3l0,0c-1.27,0-2.3-1.03-2.3-2.3V2.59C-70.89,1.32-69.86,0.29-68.59,0.29z
					"/>
				<path id="Value_00000167370096898195208760000005687295407117823145_" class="st1" d="M-57.85-11.98L-57.85-11.98
					c1.27,0,2.3,1.03,2.3,2.3v26.86c0,1.27-1.03,2.3-2.3,2.3l0,0c-1.27,0-2.3-1.03-2.3-2.3V-9.68
					C-60.15-10.95-59.12-11.98-57.85-11.98z"/>
				<path id="Value_00000106834508220280660760000006270542188390037633_" class="st1" d="M-47.1-18.12L-47.1-18.12
					c1.27,0,2.3,1.03,2.3,2.3v33c0,1.27-1.03,2.3-2.3,2.3l0,0c-1.27,0-2.3-1.03-2.3-2.3v-33C-49.41-17.09-48.38-18.12-47.1-18.12z"
					/>
				<path id="Value_00000075873402703798392310000009231552747474308256_" class="st1" d="M-36.36-11.98L-36.36-11.98
					c1.27,0,2.3,1.03,2.3,2.3v26.86c0,1.27-1.03,2.3-2.3,2.3l0,0c-1.27,0-2.3-1.03-2.3-2.3V-9.68
					C-38.66-10.95-37.63-11.98-36.36-11.98z"/>
				<path id="Value_00000142895583252346347660000015201462203693382788_" class="st7" d="M-25.62-24.26L-25.62-24.26
					c1.27,0,2.3,1.03,2.3,2.3v39.13c0,1.27-1.03,2.3-2.3,2.3l0,0c-1.27,0-2.3-1.03-2.3-2.3v-39.13
					C-27.92-23.23-26.89-24.26-25.62-24.26z"/>
			</g>
			
				<g id="Pie-Chart_00000094581025668177059590000003211779906629266595_" transform="translate(48.000000, 358.000000) scale(-1, 1) translate(-48.000000, -358.000000) translate(28.000000, 338.000000)">
				<path id="Value_00000121252300404153397280000015343352078257758113_" class="st5" d="M-3.58-75.26
					c0-8.55-6.91-15.54-15.35-15.54v15.54l10.49,11.31C-5.46-66.71-3.58-70.77-3.58-75.26z"/>
				<path id="Value_00000129907084613967782880000014798489974455367609_" class="st8" d="M-18.58-75.73h-15.5
					c0,4.01,1.63,7.76,4.22,10.49c2.84,2.98,6.89,4.86,11.28,4.86c4.05,0,7.75-1.62,10.59-4.18L-18.58-75.73z"/>
				<path id="Value_00000052799717659377251900000006585844674014837674_" class="st7" d="M-34.28-75.73
					c0-8.44,6.91-15.35,15.35-15.35v15.35H-34.28z M-11.31-90.81l-6.14,13.81l13.81-6.14C-5-86.71-8.07-89.44-11.31-90.81z"/>
			</g>
			<g id="Chart_00000005261886559224865640000016458561569247201674_" transform="translate(641.000000, 330.000000)">
				<path id="Value_00000112594306676251159910000000521309456179274889_" class="st5" d="M-70.14-60.42
					c-1.47,1.57-3.56,2.55-5.89,2.55c-4.46,0-8.08-3.61-8.08-8.06c0-4.45,3.62-8.06,8.08-8.06v-14.96
					c-12.7,0-23.09,10.36-23.09,23.02S-88.72-42.9-76.02-42.9c6.67,0,12.7-2.81,16.81-7.29L-70.14-60.42z"/>
				<path id="Value_00000106141088792404741220000008270066143297314464_" class="st8" d="M-76.02-89.21v14.96
					c4.45,0,8.06,3.61,8.06,8.06H-53C-53-78.85-63.37-89.21-76.02-89.21z"/>
				<path id="Value_00000004517874939143608560000015594327036870206859_" class="st7" d="M-68.22-66.19c0,2.61-1.23,4.94-3.14,6.44
					l9.41,11.98c5.48-4.29,9.01-10.94,9.01-18.42H-68.22z"/>
			</g>
			<g id="Chart_00000018920995967729124200000012161609873983356083_" transform="translate(459.000000, 63.000000)">
				<path id="Value_00000075157374214101018760000014059388747007930019_" class="st5" d="M-34.52-4.95C-35.66-3.75-37.26-3-39.05-3
					c-3.43,0-6.22-2.77-6.22-6.18s2.78-6.18,6.22-6.18v-11.47c-9.77,0-17.76,7.94-17.76,17.65s8,17.65,17.76,17.65
					c5.13,0,9.77-2.16,12.93-5.59L-34.52-4.95z"/>
				<path id="Value_00000077296245920924209590000001862154328223520697_" class="st8" d="M-39.05-27.09v11.47
					c3.41,0,6.18,2.77,6.18,6.18h11.47C-21.4-19.15-29.35-27.09-39.05-27.09z"/>
				<path id="Value_00000016055809855506982100000013967003832489926561_" class="st7" d="M-32.8-9.44c0,1.96-0.92,3.7-2.36,4.83
					l7.06,8.98c4.11-3.22,6.76-8.2,6.76-13.81H-32.8z"/>
			</g>
			<g id="Image_00000112598835193701269630000007215499759439473805_" transform="translate(76.000000, 57.000000)">
				<path id="Fill-35_00000054946454468050199890000001565015006351554714_" class="st7" d="M69.3,14.47c0,0.01-0.01,0.02-0.01,0.02
					C69.3,14.48,69.3,14.45,69.3,14.47"/>
				<path id="Fill-37_00000106132766336832721170000015011274177590992281_" class="st7" d="M69.3,14.48
					C69.3,14.48,69.3,14.48,69.3,14.48C69.3,14.48,69.31,14.45,69.3,14.48"/>
				<path id="Fill-39_00000105405899391154435060000010121908247107088824_" class="st7" d="M69.35,14.35
					c-0.01,0.03-0.02,0.06-0.04,0.09c0.01-0.02,0.01-0.03,0.02-0.04C69.17,14.79,69.27,14.53,69.35,14.35"/>
				<path id="Fill-41_00000172413094670758530260000016763624513139993503_" class="st7" d="M69.32,14.44
					c-0.01,0.01-0.01,0.03-0.02,0.04C69.25,14.57,69.32,14.44,69.32,14.44"/>
				<polygon id="Fill-43_00000052801147403748758920000001800187725098660021_" class="st7" points="69.25,14.48 69.25,14.48 
					69.25,14.48 				"/>
				<path id="Fill-45_00000152978356308233012400000016573940930740065967_" class="st7" d="M69.3,14.48
					C69.3,14.48,69.3,14.48,69.3,14.48C69.3,14.48,69.3,14.48,69.3,14.48"/>
				<path id="Fill-47_00000087388802851504902020000010461383855165597357_" class="st7" d="M69.29,14.49
					C69.28,14.51,69.33,14.42,69.29,14.49"/>
				<path id="Fill-49_00000094591994672862763330000008707432178242269594_" class="st7" d="M69.3,14.48L69.3,14.48
					C69.3,14.48,69.3,14.48,69.3,14.48"/>
				<path id="Photo-Background_00000129917481966496191780000012571609884789840309_" class="st1" d="M35.48-25.69h66.76
					c1.7,0,3.07,1.37,3.07,3.07v42.2c0,1.7-1.37,3.07-3.07,3.07H35.48c-1.7,0-3.07-1.37-3.07-3.07v-42.2
					C32.41-24.32,33.79-25.69,35.48-25.69z"/>
				
					<g id="icons8-night_landscape_00000041976208345754482790000009656214492727618239_" transform="translate(8.000000, 18.000000)">
					<polygon id="Mountains_00000119812750562166383010000006518917255098396087_" class="st8" points="52.09,-29.88 30.61,4.65 
						73.58,4.65 					"/>
					<polygon id="Mountains_00000062884587178908686920000010516994598962463125_" class="st7" points="73.19,-20.68 54.39,4.65 
						91.99,4.65 					"/>
				</g>
				<circle id="Sun_00000052806246360195665540000000534518715321257095_" class="st6" cx="89.25" cy="-9.31" r="6.91"/>
			</g>
			
				<g id="Image_00000088126109750041511030000001240603587895518375_" transform="translate(601.000000, 506.000000) scale(-1, 1) translate(-601.000000, -506.000000) translate(530.000000, 459.000000)">
				<path id="Fill-35_00000117669168044152496000000000760277034272468398_" class="st7" d="M160.69-59.88
					c0,0.01-0.01,0.02-0.01,0.02C160.68-59.87,160.69-59.9,160.69-59.88"/>
				<path id="Fill-37_00000138541930373990956880000004199845602780487871_" class="st7" d="M160.68-59.87
					C160.68-59.87,160.68-59.87,160.68-59.87C160.68-59.87,160.7-59.9,160.68-59.87"/>
				<path id="Fill-39_00000163032125581051507910000004789580860814948486_" class="st7" d="M160.74-60
					c-0.01,0.03-0.02,0.06-0.04,0.09c0.01-0.02,0.01-0.03,0.02-0.04C160.56-59.56,160.66-59.82,160.74-60"/>
				<path id="Fill-41_00000122696394743053091720000013323953308110333371_" class="st7" d="M160.7-59.91
					c-0.01,0.01-0.01,0.03-0.02,0.04C160.64-59.78,160.7-59.91,160.7-59.91"/>
				<polygon id="Fill-43_00000080906283798182846350000001377392480946230174_" class="st7" points="160.74,-59.87 160.74,-59.87 
					160.74,-59.87 				"/>
				<path id="Fill-45_00000133510954816416487150000004803015624582464933_" class="st7" d="M160.68-59.87
					C160.68-59.87,160.68-59.87,160.68-59.87C160.68-59.87,160.68-59.87,160.68-59.87"/>
				<path id="Fill-47_00000183957903566622799980000016496360767702418059_" class="st7" d="M160.68-59.86
					C160.67-59.84,160.72-59.93,160.68-59.86"/>
				<path id="Fill-49_00000018219004893611789370000005680032141253122696_" class="st7" d="M160.68-59.87L160.68-59.87
					C160.69-59.87,160.69-59.87,160.68-59.87"/>
				<path id="Photo-Background_00000084517772661837792020000008480702293143926155_" class="st1" d="M109.33-119.23h102.82
					c1.7,0,3.07,1.37,3.07,3.07v65.99c0,1.7-1.37,3.07-3.07,3.07H109.33c-1.7,0-3.07-1.37-3.07-3.07v-65.99
					C106.26-117.85,107.63-119.23,109.33-119.23z"/>
				
					<g id="icons8-night_landscape_00000162332839113869646830000007398588567656323458_" transform="translate(11.000000, 27.000000)">
					<polygon id="Mountains_00000116946053379730913010000001034653945238126469_" class="st8" points="135.66,-125.51 
						104.16,-74.1 167.17,-74.1 					"/>
					<polygon id="Mountains_00000017511945687614522660000015362748016898749324_" class="st7" points="168.14,-111.74 
						140.29,-74.1 195.99,-74.1 					"/>
				</g>
				<circle id="Sun_00000032617721995685209010000016169792215577941934_" class="st6" cx="190.99" cy="-94.79" r="10.36"/>
			</g>
		</g>
	</g>
</g>
<g id="Layer_2">
	<g>
		<desc>Created with Sketch.</desc>
		<g id="humaaans_x2F_standing-3_00000047750001329805022300000002073921276770490515_">
			<g id="humaaan-12_00000041991505356263241620000012747662885186399890_" transform="translate(24.000000, 10.000000)">
				
					<g id="Head_x2F_Front_x2F_Pony_00000109006616990781642280000007132105736181040563_" transform="translate(192.496667, 70.916479) rotate(15.000000) translate(-192.496667, -70.916479) translate(121.550000, 16.686230)">
					<g id="Head_00000157284888730400737760000014968553333749696660_" transform="translate(56.316359, 32.329762)">
						<path class="st9" d="M-4.79,28.23c-4.81-5.64-8.06-12.55-7.51-20.3c1.57-22.32,32.63-17.41,38.68-6.14s5.33,39.84-2.49,41.85
							c-3.11,0.8-9.75-1.16-16.5-5.23l4.24,29.99H-13.4L-4.79,28.23z"/>
					</g>
					<path id="hair_00000032636542253696859630000005548329976750147735_" class="st10" d="M60.19,58.99
						c-3.1,5.96-7.4,10.44-11.68,10.44c-8.15,0-13.94-10.89-13.94-22.6c0-0.41,0.01-0.82,0.02-1.23
						c-8.62,5.91-15.26,17.57-26.66,17.57c-15.51,0-21.67-31.29,0-31.29c14.74,0,21.99,2.15,28.24,5.33
						c1.23-3.47,3.11-6.39,5.41-8.43c0.55-0.62,1.4-1.22,2.49-1.77c0.67-0.37,1.36-0.66,2.07-0.89c3.77-1.38,9.23-2.36,15.32-2.57
						c1.14-0.04,2.26-0.05,3.35-0.04c0.02-5.74,4.68-10.4,10.43-10.4c5.76,0,10.43,4.67,10.43,10.43c0,5.57-4.37,10.12-9.86,10.41
						c-3.14,0.97-7.18,1.68-11.67,1.98c0.44,1.64,0.67,3.49,0.67,5.59c0,1.85-0.2,3.82-0.58,5.82c-0.97-1.16-2.27-1.91-3.59-1.91
						c-3.69,0-6.26,3.03-6.26,6.26C54.38,55.79,56.75,58.75,60.19,58.99z"/>
				</g>
				
					<g id="Bottom_x2F_Standing_x2F_Sweatpants_00000142877488823528025900000000404831333420586174_" transform="translate(0.000000, 211.706546)">
					<polygon id="Leg_00000039855391808155989580000009640940918563602879_" class="st11" points="122.62,-10.71 160.75,120.66 
						178.68,219.29 196.68,219.29 178.71,-10.71 					"/>
					<path id="Leg_00000014608660982233658830000001129243132556809634_" class="st9" d="M105.34-10.71
						c2.67,68.51,1.62,105.88,1.02,112.11c-0.6,6.22-3.99,47.91-27.11,120.89h18.79c30.62-70.01,41.31-111.7,44.82-120.89
						c3.51-9.19,13.89-46.56,29.03-112.11H105.34z"/>
					<path id="Pant_00000080891154148595934490000002508237100192843170_" class="st12" d="M121.71-10.71
						c9.94,45.31,27.13,117.65,51.58,217h26.39c1.95-101.98-6.34-169.09-20.7-217H121.71z"/>
					<path id="Pant_00000074406218271354355880000012991249186030201225_" class="st13" d="M105.24-10.71
						c2.61,68.39-4.16,135.77-25.11,218h28.15c30.62-68.84,52.57-135.88,67.57-218H105.24z"/>
					
						<g id="Accessories_x2F_Shoe_x2F_Flat-Simple_00000054255909626618586870000009460051781013927296_" transform="translate(87.603226, 207.536214)">
						<path id="Shoe_00000119085895402109493980000012842432780211829666_" class="st10" d="M-10.94,27.63l1.03-16.69
							c6.06,1.77,13.65,1.08,22.77-2.09c9.81,6.95,22.15,11.69,37.03,14.23l0,0c1.14,0.19,1.9,1.27,1.71,2.41
							c-0.01,0.07-0.03,0.15-0.05,0.22l-1.43,5.05H12.86H-8.87L-10.94,27.63z"/>
					</g>
					
						<g id="Accessories_x2F_Shoe_x2F_Flat-Simple_00000175317929015253063270000015809454782295799438_" transform="translate(185.635407, 207.536214)">
						<path id="Shoe_00000168810857439232575370000011058984457367599512_" class="st10" d="M-10.94,27.63l1.03-16.69
							c6.06,1.77,13.65,1.08,22.77-2.09c9.81,6.95,22.15,11.69,37.03,14.23l0,0c1.14,0.19,1.9,1.27,1.71,2.41
							c-0.01,0.07-0.03,0.15-0.05,0.22l-1.43,5.05H12.86H-8.87L-10.94,27.63z"/>
					</g>
				</g>
				
					<g id="Body_x2F_Pointing-Forward_00000020366187128464796690000004201320685089544111_" transform="translate(167.500000, 199.713318) rotate(10.000000) translate(-167.500000, -199.713318) translate(33.953333, 102.203160)">
					<path id="Skin_00000044863833654725169470000002681822318653582987_" class="st9" d="M152.76,35.65l36.2-19.83
						c6.02-7.15,11.95-12.7,17.79-16.66c1.79-0.75,4.91-1.2,1.99,3.99c-2.92,5.18-5.76,10.76-4.27,12.36s5.2-0.63,6.97,2.02
						c1.18,1.77-5.15,4.56-19.01,8.38L166.13,50L152.76,35.65z M209.46,52.38l15.9-8.73c2.23-8.49,4.9-12.76,8-12.81
						c2.38-1.11-1.77,9.62,2.75,8.69c4.52-0.93,15.55-9.13,17.45-7.47c2.81,2.46,0.3,10.03-2.65,13.79
						c-5.52,7.03-10.09,9.44-21.39,12.59c-5.91,1.65-12.29,4.95-19.16,9.9L209.46,52.38z"/>
					<path id="Sleeve_00000140720377051905108570000012492732457610311852_" class="st14" d="M135.14,31.24
						c12.68-0.13,29.59-2.81,47.63-14.26l7.08,15.8c-12.44,12.35-29.94,22.5-45.24,22.07C132.55,54.5,126.39,39.92,135.14,31.24z"/>
					<path id="Clothes_00000081630232986354720370000001395584375261537153_" class="st14" d="M152.21,56.57
						c13.46,3.36,36.03-0.6,67.72-11.88c7.86,16.26,11.49,27.85,10.9,34.77c-27.18,14.2-50.48,20.53-69.67,20.95
						c0.61,11.39-0.78,22.22-5.43,32.13c-9.57,20.36-65.63,1.5-84.48,5.21c-11.8-38.33,11.02-53.91,11.04-78.44
						c0.02-26.86,21.59-68.2,24.76-68.2l28.94,0C137.58,11.63,145.61,34.24,152.21,56.57z"/>
				</g>
			</g>
		</g>
	</g>
</g>
<g id="Layer_3">
	<g>
		<desc>Created with Sketch.</desc>
		<g id="humaaans_x2F_sitting-7_00000083075443464203592410000013666340407373390990_">
			
				<g id="A-Human_x2F_Sitting_00000168804251116561284920000006985904839962295174_" transform="translate(190.000000, 200.500000) scale(-1, 1) translate(-190.000000, -200.500000) translate(40.000000, 24.000000)">
				
					<g id="Head_x2F_Front_x2F_Chongo_00000037663925794694401160000018276042943483146902_" transform="translate(82.000000, 0.000000)">
					<g id="Head_00000029043879636992624070000014810139789575994009_" transform="translate(54.000000, 31.000000)">
						<path class="st15" d="M-279.67,118.49c-4.61-5.41-7.73-12.04-7.21-19.46c1.5-21.4,31.29-16.69,37.09-5.89
							s5.11,38.2-2.38,40.13c-2.99,0.77-9.35-1.12-15.82-5.02l4.06,28.76h-24L-279.67,118.49z"/>
					</g>
					<path id="hair_00000090269323438473914410000003037449957806672781_" class="st10" d="M-205.27,112.35
						c-3.28-1-8.04-1.34-10.04-1.11c1.14-2.73,1.59-5.77,1.22-8.73c-0.36-2.88-1.64-5.33-2.83-7.89c-0.55-1.18-1.17-2.36-2.1-3.26
						c-0.94-0.92-2.14-1.53-3.39-1.82c-1.28-0.3-2.62-0.27-3.9,0c-0.57,0.12-1.08,0.38-1.63,0.52c-0.57,0.15-0.85-0.21-1.26-0.57
						c-1-0.86-2.46-1.29-3.72-1.44c-1.42-0.17-2.88,0.04-4.23,0.51c-1.31,0.45-2.58,1.19-3.53,2.26c-0.42,0.48-0.81,1.02-1.06,1.62
						c-0.1,0.25-0.12,0.39-0.36,0.48c-0.23,0.08-0.49,0.09-0.73,0.17c-2.27,0.77-4.2,2.52-5.26,4.77c-0.62,1.31-0.91,3.62-0.83,6.21
						c0.08,2.59,2.42,9.34,4.6,11.8c1.95,2.2,4.82,3.65,7.59,4.28c-1.84,2.1-3.06,4.72-3.96,7.39c-0.98,2.9-1.59,5.91-1.81,8.98
						c-0.21,2.92-0.23,6,0.45,8.85c0.64,2.67,2.01,4.86,4.29,6.25c1.05,0.64,2.17,1.11,3.3,1.55c1.12,0.43,2.23,0.85,3.4,1.09
						c2.21,0.46,4.76,0.38,6.46-1.38c0.61-0.63,1.29-1.43,1.74-2.21c0.16-0.28,0.26-0.46,0.06-0.73c-0.23-0.33-0.61-0.58-0.91-0.83
						c-1.72-1.46-2.78-3.4-3.05-5.71c-0.27-2.34,0.36-5.37,2.63-6.39c2.81-1.26,5.91,0.19,8.41,1.54c1.06-3.75,3.24-7.12,6.66-8.84
						c3.78-1.9,8.12-2.12,12.01-3.76c1.01-0.43,2.04-0.91,2.79-1.77c0.31-0.36,0.68-0.83,0.8-1.31c0.16-0.63-0.24-1.16-0.56-1.65
						C-195.69,118.61-201.99,113.35-205.27,112.35z"/>
				</g>
				
					<g id="Bottom_x2F_Sitting_x2F_Wheelchair_00000065760961921439149840000014293732395267923642_" transform="translate(0.000000, 187.000000)">
					<path id="Skin_00000126289461416208055170000007545542520438382985_" class="st15" d="M-33.05,102.08
						c7.18-9.74,25.13-3.29,25.12,4.77c-0.03,21.17-19.34,121.65-20.35,127.99c-1.01,6.34-11.81,8.42-12.44,0.49
						c-1-12.61-2.86-56.34-1-76.68c0.54-5.94,1.12-11.68,1.69-17.06c-10.15,18.24-25.59,44.01-46.31,77.33l-11.52-5.26
						c9.04-29.8,16.46-50.83,22.25-63.11c9.91-21.02,19.2-39.01,23.11-45.35C-47.33,96.82-38.96,97.93-33.05,102.08z"/>
					<path id="Leg-Back_00000130643095761605144780000009855047060891003839_" class="st16" d="M-97.04,197.11l39.53-93.64
						c9.47-15.23,36.02,3.1,32.79,11.93c-7.33,20.06-44.62,84.99-46.8,90.97L-97.04,197.11z"/>
					<path id="Leg-Front_00000047021315278784192710000018338988370239661471_" class="st17" d="M-6.94,113.93
						c0,26.54-11.63,88.93-11.64,94.77l-28.18-0.95c4.93-54.24,7-81.55,6.23-81.92c-1.74-0.83-71.15,9.61-91.96,10.39
						c-30.02,1.14-42.44-17.28-43.44-52.23h58.15c49.72,5.94,82.4,10.06,98.04,12.38C-9.71,97.87-6.94,106.61-6.94,113.93z"/>
					
						<g id="Accessories_x2F_Shoe_x2F_Flat-Sneaker_00000016789377041271794110000005743956311201501336_" transform="translate(216.820222, 128.225467) rotate(14.000000) translate(-216.820222, -128.225467) translate(186.320222, 108.225467)">
						<path id="shoe_00000057123695656175673820000004562124066869472916_" class="st18" d="M-256.39,176.55
							c-1.12,2.99-1.68,5.22-1.68,6.7c0,1.8,0.3,4.43,0.9,7.89c2.09,0,20.89,0,56.4,0c1.47-4.85,0.62-7.46-2.54-7.85
							c-3.16-0.39-5.78-0.74-7.87-1.05l-26.22-11.69c-0.5-0.22-1.1,0-1.32,0.51c0,0.01-0.01,0.02-0.01,0.03l-1.69,4.09
							c-2.92,1.36-5.3,2.05-7.13,2.05c-1.48,0-3.54-0.6-6.15-1.8v0c-1-0.46-2.19-0.02-2.65,0.98
							C-256.35,176.46-256.37,176.51-256.39,176.55z"/>
					</g>
					
						<g id="Accessories_x2F_Shoe_x2F_Flat-Sneaker_00000108305136467584381930000001392099675124797824_" transform="translate(243.000000, 111.000000)">
						<path id="shoe_00000001648833425992958000000014079850563172669861_" class="st18" d="M-285.26,109.4
							c-1.12,2.99-1.68,5.22-1.68,6.7c0,1.8,0.3,4.43,0.9,7.89c2.09,0,20.89,0,56.4,0c1.47-4.85,0.62-7.46-2.54-7.85
							c-3.16-0.39-5.78-0.74-7.87-1.05l-26.22-11.69c-0.5-0.22-1.1,0-1.32,0.51c0,0.01-0.01,0.02-0.01,0.03l-1.69,4.09
							c-2.92,1.36-5.3,2.05-7.13,2.05c-1.48,0-3.54-0.6-6.15-1.8v0c-1-0.46-2.19-0.02-2.65,0.98
							C-285.22,109.31-285.24,109.36-285.26,109.4z"/>
					</g>
					<path id="Base_00000005983328445619801620000008217985642251651745_" class="st19" d="M-39.44,235h46c1.93,0,3.5,1.57,3.5,3.5
						l0,0c0,1.93-1.57,3.5-3.5,3.5h-46c-1.93,0-3.5-1.57-3.5-3.5l0,0C-42.94,236.57-41.37,235-39.44,235z"/>
					<path id="Seat_00000136402510978335995970000012589954922380446875_" class="st19" d="M-179,90h107c5.52,0,10,4.48,10,10v49
						h-123c-2.21,0-4-1.79-4-4v-45C-189,94.48-184.52,90-179,90z"/>
					<path id="Wheel-Stuff_00000106867097938582465290000007556536457817407107_" class="st19" d="M-72,90h2.26
						c4.9,0,9.07,3.55,9.87,8.38L-37.94,232H-49"/>
					<circle id="Front-Wheel_00000069362566258619291420000005323916981249231001_" class="st10" cx="-42.94" cy="233.98" r="18"/>
					<g id="Wheel_00000173141843028619896270000013903267457733849264_" transform="translate(36.000000, 14.000000)">
						<path class="st10" d="M-211.94,235.98c-41.97,0-76-34.03-76-76s34.03-76,76-76s76,34.03,76,76S-169.96,235.98-211.94,235.98z
							 M-211.94,221.98c34.24,0,62-27.76,62-62s-27.76-62-62-62s-62,27.76-62,62S-246.18,221.98-211.94,221.98z"/>
						
							<rect id="Wheel-Stuff_00000146460222266988601560000010587834285853165705_" x="-216" y="226" transform="matrix(0.8829 0.4695 -0.4695 0.8829 50.3002 118.2557)" class="st10" width="8" height="-132"/>
						<path id="Wheel-Stuff_00000152243637239200280860000006812112919059137973_" class="st10" d="M-166.68,111.9l2.83,2.83
							c0.78,0.78,0.78,2.05,0,2.83l-90.51,90.51c-0.78,0.78-2.05,0.78-2.83,0l-2.83-2.83c-0.78-0.78-0.78-2.05,0-2.83l90.51-90.51
							C-168.73,111.12-167.46,111.12-166.68,111.9z"/>
						<path id="Wheel-Stuff_00000147210068363170044720000003634014026048008369_" class="st10" d="M-146,158v4c0,1.1-0.9,2-2,2
							h-128c-1.1,0-2-0.9-2-2v-4c0-1.1,0.9-2,2-2h128C-146.9,156-146,156.9-146,158z"/>
						<path id="Wheel-Stuff_00000155831507833802517770000007546914729283502225_" class="st10" d="M-163.85,205.24l-2.83,2.83
							c-0.78,0.78-2.05,0.78-2.83,0l-90.51-90.51c-0.78-0.78-0.78-2.05,0-2.83l2.83-2.83c0.78-0.78,2.05-0.78,2.83,0l90.51,90.51
							C-163.07,203.19-163.07,204.46-163.85,205.24z"/>
					</g>
				</g>
				
					<g id="Body_x2F_Pointing-Up_00000046330317886781051650000000375830328003869841_" transform="translate(22.000000, 82.000000)">
					<path id="Skin_00000044891184544107666180000013576291090802971301_" class="st15" d="M-96.48,86.33l37.9-11.38
						c7.07-5.5,13.74-9.53,20.01-12.07c1.82-0.34,4.84-0.14,1.07,4.13c-3.77,4.28-7.55,8.95-6.47,10.74c1.08,1.79,5,0.44,6.14,3.28
						c0.76,1.89-5.74,3.25-19.5,4.07l-29.47,17.34L-96.48,86.33z M-99.83,153.15l31.9,23.42c8.65,2.33,15.88,5.24,21.68,8.71
						c1.37,1.25,3.03,3.78-2.66,3.34c-5.69-0.44-11.69-0.64-12.47,1.3s2.66,4.26,1.07,6.88c-1.06,1.74-6.05-2.63-14.99-13.12
						l-31.59-13.1L-99.83,153.15z"/>
					<path id="Coat-Back_00000067222308095503070520000002588780677639577994_" class="st20" d="M-149.38,90.07
						c17.37,32.39,42.49,57.22,78.9,83.03l-13.79,15.55c-40.66-15.11-62.12-24.23-72.66-54.83c-2.64-7.68-4.49-32.16-6.08-45.05
						L-149.38,90.07z"/>
					<path id="Shirt_00000013878373541621746030000006000442851746522784_" class="st5" d="M-197.94,198h77
						c-17.44-53.19-26.35-89.7-26.73-109.53c-0.02-1.01-1.89-2.79-2.71-2.56c-6.04,1.71-12.5,1.07-19.39-1.91
						C-188.02,113.36-194.33,149.5-197.94,198z"/>
					<path id="Coat-Front_00000174578021445086729780000005881388492344478870_" class="st16" d="M-163.27,84.05
						c22.13,0.18,58.05,4.22,99.46-9.07l4.09,20.43c-31.3,20.13-63,35.73-90.77,33.51c12.06,51.73,11.5,94.08-15.12,94.08
						c-12.72,0-26.44,0-41.17,0c-6.54-43.95,10.65-104.88,26.58-135.61c0.61-1.17,1.9-3.39,4.96-3.39c2.66,0,6.65,0,11.96,0
						C-163.28,84.02-163.27,84.03-163.27,84.05z"/>
				</g>
			</g>
		</g>
	</g>
</g>
</svg>
